# Blender 5.0.1
# www.blender.org
o Cylinder
v 0.000000 -0.150000 -0.150000
v 0.000000 1.118122 -0.150000
v 0.029264 -0.150000 -0.147118
v 0.029264 1.118122 -0.147118
v 0.057403 -0.150000 -0.138582
v 0.057403 1.118122 -0.138582
v 0.083336 -0.150000 -0.124720
v 0.083336 1.118122 -0.124720
v 0.106066 -0.150000 -0.106066
v 0.106066 1.118122 -0.106066
v 0.124720 -0.150000 -0.083336
v 0.124720 1.118122 -0.083336
v 0.138582 -0.150000 -0.057403
v 0.138582 1.118122 -0.057403
v 0.147118 -0.150000 -0.029264
v 0.147118 1.118122 -0.029264
v 0.150000 -0.150000 0.000000
v 0.150000 1.118122 0.000000
v 0.147118 -0.150000 0.029264
v 0.147118 1.118122 0.029264
v 0.138582 -0.150000 0.057403
v 0.138582 1.118122 0.057403
v 0.124720 -0.150000 0.083336
v 0.124720 1.118122 0.083336
v 0.106066 -0.150000 0.106066
v 0.106066 1.118122 0.106066
v 0.083336 -0.150000 0.124720
v 0.083336 1.118122 0.124720
v 0.057403 -0.150000 0.138582
v 0.057403 1.118122 0.138582
v 0.029264 -0.150000 0.147118
v 0.029264 1.118122 0.147118
v 0.000000 -0.150000 0.150000
v 0.000000 1.118122 0.150000
v -0.029264 -0.150000 0.147118
v -0.029264 1.118122 0.147118
v -0.057403 -0.150000 0.138582
v -0.057403 1.118122 0.138582
v -0.083336 -0.150000 0.124720
v -0.083336 1.118122 0.124720
v -0.106066 -0.150000 0.106066
v -0.106066 1.118122 0.106066
v -0.124720 -0.150000 0.083336
v -0.124720 1.118122 0.083336
v -0.138582 -0.150000 0.057403
v -0.138582 1.118122 0.057403
v -0.147118 -0.150000 0.029264
v -0.147118 1.118122 0.029264
v -0.150000 -0.150000 0.000000
v -0.150000 1.118122 0.000000
v -0.147118 -0.150000 -0.029264
v -0.147118 1.118122 -0.029264
v -0.138582 -0.150000 -0.057403
v -0.138582 1.118122 -0.057403
v -0.124720 -0.150000 -0.083336
v -0.124720 1.118122 -0.083336
v -0.106066 -0.150000 -0.106066
v -0.106066 1.118122 -0.106066
v -0.083336 -0.150000 -0.124720
v -0.083336 1.118122 -0.124720
v -0.057403 -0.150000 -0.138582
v -0.057403 1.118122 -0.138582
v -0.029264 -0.150000 -0.147118
v -0.029264 1.118122 -0.147118
v 0.019223 1.174967 -0.096640
v 0.000000 1.174967 -0.098533
v 0.037707 1.174967 -0.091032
v 0.054742 1.174967 -0.081927
v 0.069673 1.174967 -0.069673
v 0.081927 1.174967 -0.054742
v 0.091032 1.174967 -0.037707
v 0.096640 1.174967 -0.019223
v 0.098533 1.174967 -0.000000
v 0.096640 1.174967 0.019223
v 0.091032 1.174967 0.037707
v 0.081927 1.174967 0.054742
v 0.069673 1.174967 0.069673
v 0.054742 1.174967 0.081927
v 0.037707 1.174967 0.091032
v 0.019223 1.174967 0.096640
v 0.000000 1.174967 0.098533
v -0.019223 1.174967 0.096640
v -0.037707 1.174967 0.091032
v -0.054742 1.174967 0.081927
v -0.069673 1.174967 0.069673
v -0.081927 1.174967 0.054742
v -0.091032 1.174967 0.037707
v -0.096640 1.174967 0.019223
v -0.098533 1.174967 -0.000000
v -0.096640 1.174967 -0.019223
v -0.091032 1.174967 -0.037707
v -0.081927 1.174967 -0.054742
v -0.069673 1.174967 -0.069673
v -0.054742 1.174967 -0.081927
v -0.037707 1.174967 -0.091032
v -0.019223 1.174967 -0.096640
vn 0.0980 -0.0000 -0.9952
vn 0.2903 -0.0000 -0.9569
vn 0.4714 -0.0000 -0.8819
vn 0.6344 -0.0000 -0.7730
vn 0.7730 -0.0000 -0.6344
vn 0.8819 -0.0000 -0.4714
vn 0.9569 -0.0000 -0.2903
vn 0.9952 -0.0000 -0.0980
vn 0.9952 -0.0000 0.0980
vn 0.9569 -0.0000 0.2903
vn 0.8819 -0.0000 0.4714
vn 0.7730 -0.0000 0.6344
vn 0.6344 -0.0000 0.7730
vn 0.4714 -0.0000 0.8819
vn 0.2903 -0.0000 0.9569
vn 0.0980 -0.0000 0.9952
vn -0.0980 -0.0000 0.9952
vn -0.2903 -0.0000 0.9569
vn -0.4714 -0.0000 0.8819
vn -0.6344 -0.0000 0.7730
vn -0.7730 -0.0000 0.6344
vn -0.8819 -0.0000 0.4714
vn -0.9569 -0.0000 0.2903
vn -0.9952 -0.0000 0.0980
vn -0.9952 -0.0000 -0.0980
vn -0.9569 -0.0000 -0.2903
vn -0.8819 -0.0000 -0.4714
vn -0.7730 -0.0000 -0.6344
vn -0.6344 -0.0000 -0.7730
vn -0.4714 -0.0000 -0.8819
vn 0.6552 0.6694 -0.3502
vn -0.2903 -0.0000 -0.9569
vn -0.0980 -0.0000 -0.9952
vn -0.0000 -1.0000 -0.0000
vn -0.0000 1.0000 -0.0000
vn 0.2157 0.6694 0.7109
vn -0.7393 0.6694 0.0728
vn 0.2157 0.6694 -0.7109
vn 0.6552 0.6694 0.3502
vn -0.4713 0.6694 0.5743
vn -0.4713 0.6694 -0.5743
vn 0.7109 0.6694 -0.2157
vn 0.0728 0.6694 0.7393
vn -0.7393 0.6694 -0.0728
vn 0.3502 0.6694 -0.6552
vn 0.5743 0.6694 0.4713
vn -0.5743 0.6694 0.4713
vn -0.3502 0.6694 -0.6552
vn 0.7393 0.6694 -0.0728
vn -0.0728 0.6694 0.7393
vn -0.7109 0.6694 -0.2157
vn 0.4713 0.6694 -0.5743
vn 0.4713 0.6694 0.5743
vn -0.6552 0.6694 0.3502
vn -0.2157 0.6694 -0.7109
vn 0.7393 0.6694 0.0728
vn -0.2157 0.6694 0.7109
vn -0.6552 0.6694 -0.3502
vn 0.5743 0.6694 -0.4713
vn 0.3502 0.6694 0.6552
vn -0.7109 0.6694 0.2157
vn 0.0728 0.6694 -0.7393
vn -0.0728 0.6694 -0.7393
vn 0.7109 0.6694 0.2157
vn -0.3502 0.6694 0.6552
vn -0.5743 0.6694 -0.4713
vt 0.901108 0.358318
vt 0.901108 0.763087
vt 0.891767 0.763087
vt 0.891767 0.358318
vt 0.882785 0.763087
vt 0.882785 0.358318
vt 0.874508 0.763087
vt 0.874508 0.358318
vt 0.867253 0.763087
vt 0.867253 0.358318
vt 0.861298 0.763087
vt 0.861298 0.358318
vt 0.856874 0.763087
vt 0.856874 0.358318
vt 0.854149 0.763087
vt 0.854149 0.358318
vt 0.853229 0.763087
vt 0.853229 0.358318
vt 0.896207 0.478430
vt 0.896207 0.665842
vt 0.895781 0.665842
vt 0.895781 0.478430
vt 0.894520 0.665842
vt 0.894520 0.478430
vt 0.892471 0.665842
vt 0.892471 0.478430
vt 0.889714 0.665842
vt 0.889714 0.478430
vt 0.886355 0.665842
vt 0.886355 0.478430
vt 0.882522 0.665842
vt 0.882522 0.478430
vt 0.878364 0.665842
vt 0.878364 0.478430
vt 0.874039 0.665842
vt 0.874039 0.478430
vt 0.921900 0.570017
vt 0.921900 0.808214
vt 0.921359 0.808214
vt 0.921359 0.570017
vt 0.919756 0.808214
vt 0.919756 0.570017
vt 0.917152 0.808214
vt 0.917152 0.570017
vt 0.913648 0.808214
vt 0.913648 0.570017
vt 0.909379 0.808214
vt 0.909379 0.570017
vt 0.904507 0.808214
vt 0.904507 0.570017
vt 0.899222 0.808214
vt 0.899222 0.570017
vt 0.893725 0.808214
vt 0.893725 0.570017
vt 0.888229 0.808214
vt 0.888229 0.570017
vt 0.882943 0.808214
vt 0.882943 0.570017
vt 0.878072 0.808214
vt 0.878072 0.570017
vt 0.873803 0.808214
vt 0.873803 0.570017
vt 0.870299 0.808214
vt 0.870299 0.570017
vt 0.867695 0.808214
vt 0.867695 0.570017
vt 0.874958 0.781232
vt 0.872051 0.781232
vt 0.866092 0.808214
vt 0.866092 0.570017
vt 0.865550 0.808214
vt 0.865550 0.570017
vt 0.910448 0.358318
vt 0.919430 0.358318
vt 0.927707 0.358318
vt 0.934963 0.358318
vt 0.940917 0.358318
vt 0.945341 0.358318
vt 0.948066 0.358318
vt 0.948986 0.358318
vt 0.971873 0.730974
vt 0.965088 0.731642
vt 0.958303 0.730974
vt 0.951778 0.728995
vt 0.945765 0.725781
vt 0.940495 0.721455
vt 0.936170 0.716185
vt 0.932956 0.710172
vt 0.930977 0.703648
vt 0.930308 0.696863
vt 0.930977 0.690077
vt 0.932956 0.683553
vt 0.936170 0.677540
vt 0.940495 0.672270
vt 0.945765 0.667944
vt 0.951778 0.664730
vt 0.958303 0.662751
vt 0.965088 0.662083
vt 0.971873 0.662751
vt 0.978397 0.664730
vt 0.984411 0.667944
vt 0.989681 0.672270
vt 0.994006 0.677540
vt 0.997220 0.683553
vt 0.999199 0.690077
vt 0.999868 0.696863
vt 0.999199 0.703648
vt 0.997220 0.710172
vt 0.994006 0.716185
vt 0.989681 0.721455
vt 0.984411 0.725781
vt 0.978397 0.728995
vt 0.879612 0.674243
vt 0.876880 0.674243
vt 0.897336 0.818891
vt 0.893725 0.818891
vt 0.894972 0.781232
vt 0.889072 0.781232
vt 0.887492 0.674243
vt 0.886147 0.674243
vt 0.909114 0.818891
vt 0.906812 0.818891
vt 0.880638 0.818891
vt 0.878337 0.818891
vt 0.870261 0.781232
vt 0.874039 0.674243
vt 0.890115 0.818891
vt 0.883635 0.781232
vt 0.884336 0.674243
vt 0.904008 0.818891
vt 0.876626 0.818891
vt 0.750000 1.000000
vt 0.781250 1.000000
vt 0.912233 0.818891
vt 0.911878 0.818891
vt 0.886643 0.818891
vt 0.878869 0.781232
vt 0.882129 0.674243
vt 0.900808 0.818891
vt 0.875573 0.818891
vt 0.888601 0.674243
vt 0.888321 0.674243
vt 0.910824 0.818891
vt 0.883443 0.818891
vt 0.901108 0.781232
vt 0.875217 0.818891
s 0
f 1/1/1 2/2/1 4/3/1 3/4/1
f 3/4/2 4/3/2 6/5/2 5/6/2
f 5/6/3 6/5/3 8/7/3 7/8/3
f 7/8/4 8/7/4 10/9/4 9/10/4
f 9/10/5 10/9/5 12/11/5 11/12/5
f 11/12/6 12/11/6 14/13/6 13/14/6
f 13/14/7 14/13/7 16/15/7 15/16/7
f 15/16/8 16/15/8 18/17/8 17/18/8
f 17/19/9 18/20/9 20/21/9 19/22/9
f 19/22/10 20/21/10 22/23/10 21/24/10
f 21/24/11 22/23/11 24/25/11 23/26/11
f 23/26/12 24/25/12 26/27/12 25/28/12
f 25/28/13 26/27/13 28/29/13 27/30/13
f 27/30/14 28/29/14 30/31/14 29/32/14
f 29/32/15 30/31/15 32/33/15 31/34/15
f 31/34/16 32/33/16 34/35/16 33/36/16
f 33/37/17 34/38/17 36/39/17 35/40/17
f 35/40/18 36/39/18 38/41/18 37/42/18
f 37/42/19 38/41/19 40/43/19 39/44/19
f 39/44/20 40/43/20 42/45/20 41/46/20
f 41/46/21 42/45/21 44/47/21 43/48/21
f 43/48/22 44/47/22 46/49/22 45/50/22
f 45/50/23 46/49/23 48/51/23 47/52/23
f 47/52/24 48/51/24 50/53/24 49/54/24
f 49/54/25 50/53/25 52/55/25 51/56/25
f 51/56/26 52/55/26 54/57/26 53/58/26
f 53/58/27 54/57/27 56/59/27 55/60/27
f 55/60/28 56/59/28 58/61/28 57/62/28
f 57/62/29 58/61/29 60/63/29 59/64/29
f 59/64/30 60/63/30 62/65/30 61/66/30
f 14/13/31 12/11/31 70/67/31 71/68/31
f 61/66/32 62/65/32 64/69/32 63/70/32
f 63/70/33 64/69/33 2/71/33 1/72/33
f 1/1/34 3/4/34 5/6/34 7/8/34 9/10/34 11/12/34 13/14/34 15/16/34 17/18/34 19/16/34 21/14/34 23/12/34 25/10/34 27/8/34 29/6/34 31/4/34 33/1/34 35/73/34 37/74/34 39/75/34 41/76/34 43/77/34 45/78/34 47/79/34 49/80/34 51/79/34 53/78/34 55/77/34 57/76/34 59/75/34 61/74/34 63/73/34
f 65/81/35 66/82/35 96/83/35 95/84/35 94/85/35 93/86/35 92/87/35 91/88/35 90/89/35 89/90/35 88/91/35 87/92/35 86/93/35 85/94/35 84/95/35 83/96/35 82/97/35 81/98/35 80/99/35 79/100/35 78/101/35 77/102/35 76/103/35 75/104/35 74/105/35 73/106/35 72/107/35 71/108/35 70/109/35 69/110/35 68/111/35 67/112/35
f 32/33/36 30/31/36 79/113/36 80/114/36
f 50/53/37 48/51/37 88/115/37 89/116/37
f 6/5/38 4/3/38 65/117/38 67/118/38
f 24/25/39 22/23/39 75/119/39 76/120/39
f 42/45/40 40/43/40 84/121/40 85/122/40
f 60/63/41 58/61/41 93/123/41 94/124/41
f 16/15/42 14/13/42 71/68/42 72/125/42
f 34/35/43 32/33/43 80/114/43 81/126/43
f 52/55/44 50/53/44 89/116/44 90/127/44
f 8/7/45 6/5/45 67/118/45 68/128/45
f 26/27/46 24/25/46 76/120/46 77/129/46
f 44/47/47 42/45/47 85/122/47 86/130/47
f 62/65/48 60/63/48 94/124/48 95/131/48
f 18/132/49 16/133/49 72/133/49 73/132/49
f 36/39/50 34/38/50 81/134/50 82/135/50
f 54/57/51 52/55/51 90/127/51 91/136/51
f 10/9/52 8/7/52 68/128/52 69/137/52
f 28/29/53 26/27/53 77/129/53 78/138/53
f 46/49/54 44/47/54 86/130/54 87/139/54
f 64/69/55 62/65/55 95/131/55 96/140/55
f 20/21/56 18/20/56 73/141/56 74/142/56
f 38/41/57 36/39/57 82/135/57 83/143/57
f 56/59/58 54/57/58 91/136/58 92/144/58
f 12/11/59 10/9/59 69/137/59 70/67/59
f 30/31/60 28/29/60 78/138/60 79/113/60
f 48/51/61 46/49/61 87/139/61 88/115/61
f 4/3/62 2/2/62 66/145/62 65/117/62
f 2/71/63 64/69/63 96/140/63 66/146/63
f 22/23/64 20/21/64 74/142/64 75/119/64
f 40/43/65 38/41/65 83/143/65 84/121/65
f 58/61/66 56/59/66 92/144/66 93/123/66
