# Blender 4.5.0
# www.blender.org
mtllib hat.mtl
o Cube
v 0.000000 -0.036874 0.000000
v 0.217082 -0.024816 0.157718
v -0.082916 -0.024816 0.255195
v -0.268328 -0.024815 0.000000
v -0.082916 -0.024816 -0.255195
v 0.217082 -0.068096 -0.157718
v 0.082916 0.134166 0.255195
v -0.217082 0.134166 0.157718
v -0.217082 0.181830 -0.225539
v 0.082916 0.134166 -0.255195
v 0.268328 0.134165 0.000000
v 0.000000 0.281612 0.000000
v -0.048737 0.007930 0.149999
v 0.127597 0.007930 0.092703
v 0.078861 -0.048372 0.242703
v 0.255194 -0.048371 0.000000
v 0.127597 0.007930 -0.092703
v -0.157719 0.007931 0.000000
v -0.206457 -0.048371 0.149999
v -0.048737 0.007930 -0.149999
v -0.206457 -0.048371 -0.149999
v 0.078861 -0.048372 -0.242703
v 0.285317 0.066070 0.092704
v 0.285317 0.066070 -0.092704
v 0.000000 0.066070 0.300000
v 0.176336 0.066070 0.242705
v -0.285317 0.000000 0.092704
v -0.176336 0.000000 0.242705
v -0.176336 0.000000 -0.242705
v -0.285317 0.000000 -0.092704
v 0.176336 0.066070 -0.242705
v 0.000000 0.066070 -0.300000
v 0.206457 0.223790 0.149999
v -0.078861 0.201421 0.278344
v -0.255194 0.157721 0.000000
v -0.078861 0.205385 -0.310525
v 0.206457 0.157721 -0.149999
v 0.048737 0.298896 0.185639
v 0.157719 0.255195 0.000000
v -0.127597 0.298896 0.128344
v -0.127597 0.302860 -0.160525
v 0.048737 0.255196 -0.149999
v -0.004005 0.233096 -0.005039
v -0.127597 0.233839 -0.012807
vn 0.1024 -0.9435 0.3151
vn -0.3738 -0.9263 0.0480
vn -0.2680 -0.9435 0.1947
vn -0.2680 -0.9435 -0.1947
vn 0.1024 -0.9435 -0.3151
vn 0.8529 -0.4453 0.2726
vn 0.0043 -0.4453 0.8954
vn -0.5769 -0.8092 0.1109
vn -0.2837 -0.8092 -0.5144
vn 0.4449 -0.3789 -0.8115
vn 0.7952 -0.1837 0.5778
vn -0.2000 -0.2804 0.9388
vn -0.8251 -0.5649 -0.0000
vn -0.2000 -0.2804 -0.9388
vn 0.8026 -0.1256 -0.5831
vn 0.3875 0.4257 0.8177
vn -0.6984 0.4749 0.5355
vn -0.7848 0.6161 -0.0668
vn 0.4858 0.6475 -0.5871
vn 0.7240 0.6617 -0.1947
vn 0.1640 0.9792 -0.1192
vn 0.4911 0.7947 -0.3568
vn 0.4089 0.6617 -0.6284
vn -0.0172 0.9893 0.1446
vn 0.2566 0.8464 -0.4666
vn -0.4713 0.6617 -0.5831
vn -0.2294 0.7717 -0.5932
vn -0.5114 0.8593 0.0118
vn -0.8240 0.4963 0.2732
vn 0.0329 0.9943 -0.1012
vn -0.1876 0.7947 0.5773
vn 0.2983 0.4231 0.8555
vn 0.1637 0.9774 -0.1340
vn 0.4379 0.8979 0.0457
vn 0.7346 0.6714 -0.0981
vn 0.8055 0.5383 -0.2477
vn 0.7686 0.3122 -0.5584
vn 0.4845 0.5383 -0.6896
vn 0.3764 0.1439 -0.9152
vn -0.2327 -0.2036 -0.9510
vn -0.5190 -0.0357 -0.8540
vn -0.9560 0.2611 -0.1336
vn -0.9822 0.1876 -0.0000
vn -0.9050 0.3304 0.2680
vn -0.6998 0.2183 0.6802
vn -0.3012 -0.0229 0.9533
vn 0.2547 0.2957 0.9207
vn 0.4047 0.4047 0.8200
vn 0.7947 0.1876 0.5773
vn 0.9049 0.4047 0.1314
vn 0.2998 0.2421 -0.9228
vn 0.2988 -0.2545 -0.9197
vn 0.0043 -0.4453 -0.8954
vn -0.8027 -0.1248 -0.5832
vn -0.6867 -0.5286 -0.4989
vn -0.5769 -0.8092 -0.1109
vn -0.8026 0.1256 0.5831
vn -0.6867 -0.5286 0.4989
vn -0.2837 -0.8092 0.5144
vn 0.2998 0.2421 0.9228
vn 0.2988 -0.2545 0.9197
vn 0.5228 -0.4453 0.7269
vn 0.9703 0.2421 -0.0000
vn 0.9671 -0.2545 -0.0000
vn 0.9092 -0.3789 -0.1723
vn -0.3816 -0.8177 0.4309
vn -0.1247 -0.9149 0.3839
vn -0.1612 -0.9263 0.3407
vn 0.3306 -0.9263 0.1809
vn 0.3266 -0.9149 0.2373
vn 0.2742 -0.9263 0.2586
vn 0.2742 -0.9263 -0.2586
vn 0.3266 -0.9149 -0.2373
vn 0.3306 -0.9263 -0.1809
vn -0.5278 -0.8177 0.2298
vn -0.4037 -0.9149 -0.0000
vn 0.3313 -0.9435 -0.0000
vn -0.1612 -0.9263 -0.3407
vn -0.1247 -0.9149 -0.3839
vn -0.0699 -0.9263 -0.3704
vn -0.0212 0.9058 0.4232
vt 0.500000 0.486329
vt 0.434915 0.503310
vt 0.480588 0.477535
vt 0.800385 0.283691
vt 0.687544 0.340085
vt 0.526646 0.243125
vt 0.526646 0.262925
vt 0.786987 0.340085
vt 0.526646 0.340086
vt 0.266305 0.340085
vt 0.555825 0.520427
vt 0.479100 0.532946
vt 0.743283 0.084848
vt 0.813153 0.062021
vt 0.765602 0.102157
vt 0.090910 0.157461
vt 0.181819 0.157461
vt 0.136365 0.236191
vt 0.526646 0.283693
vt 0.786988 0.243125
vt 0.687545 0.326429
vt 0.083724 0.283690
vt 0.266304 0.243125
vt 0.105402 0.326429
vt 0.887224 0.060574
vt 0.925386 0.099538
vt 0.930464 0.120845
vt 0.706312 0.131702
vt 0.969568 0.283690
vt 1.047333 0.440211
vt 0.947891 0.326429
vt 0.365747 0.326429
vt 0.005959 0.440211
vt 0.856949 0.097428
vt 0.708607 0.178147
vt 0.741143 0.189680
vt 0.737696 0.251436
vt 0.800385 0.557485
vt 1.009746 0.673310
vt 0.749403 0.841178
vt 0.135195 0.639570
vt 0.526646 0.598050
vt 0.248035 0.848005
vt 0.936990 0.168419
vt 0.960234 0.224822
vt 0.891608 0.227217
vt 0.811670 0.133104
vt 0.888325 0.154326
vt 0.817300 0.210420
vt 0.824823 0.248659
vt 0.898068 0.273266
vt 0.827211 0.228909
vt -0.012308 0.680136
vt 0.504418 0.729139
vt 0.526646 0.811412
vt 0.517901 0.727859
vt 0.776578 0.275303
vt 0.848846 0.841178
vt 0.713274 0.232085
vt 0.952526 0.157213
vt 0.701033 0.168248
vt 0.539572 0.530599
vt 0.599421 0.520941
vt 0.583459 0.576490
vt 0.373001 0.521454
vt 0.401851 0.466355
vt 0.403133 0.505761
vt 0.720328 0.110011
vt 0.365748 0.340085
vt 0.105404 0.243124
vt 0.252908 0.209155
vt 0.606569 0.481389
vt 0.549570 0.486406
vt 0.582252 0.464410
vt 0.527906 0.444330
vt 0.468354 0.450916
vt 0.947888 0.243124
s 0
usemtl Material
f 1/1/1 14/2/1 13/3/1
f 2/4/2 14/5/2 16/6/2
f 1/7/3 13/8/3 18/9/3
f 1/7/4 18/9/4 20/10/4
f 1/1/5 20/11/5 17/12/5
f 2/13/6 16/14/6 23/15/6
f 3/16/7 15/17/7 25/18/7
f 4/19/8 19/20/8 27/21/8
f 5/22/9 21/23/9 29/24/9
f 6/25/10 22/26/10 31/27/10
f 2/13/11 23/15/11 26/28/11
f 3/29/12 25/30/12 28/31/12
f 4/19/13 27/21/13 30/32/13
f 5/22/14 29/24/14 32/33/14
f 6/25/15 31/27/15 24/34/15
f 7/35/16 33/36/16 38/37/16
f 8/38/17 34/39/17 40/40/17
f 9/41/18 35/42/18 41/43/18
f 10/44/19 36/45/19 42/46/19
f 11/47/20 37/48/20 39/49/20
f 39/49/21 42/46/21 12/50/21
f 39/49/22 37/48/22 42/46/22
f 37/48/23 10/44/23 42/46/23
f 42/46/24 41/51/24 43/52/24 12/50/24
f 42/46/25 36/45/25 41/51/25
f 36/53/26 9/41/26 41/43/26
f 44/54/27 40/40/27 12/55/27 43/56/27
f 41/43/28 35/42/28 40/40/28 44/54/28
f 35/42/29 8/38/29 40/40/29
f 40/57/30 38/37/30 12/50/30
f 40/40/31 34/39/31 38/58/31
f 34/59/32 7/35/32 38/37/32
f 38/37/33 39/49/33 12/50/33
f 38/37/34 33/36/34 39/49/34
f 33/36/35 11/47/35 39/49/35
f 24/34/36 37/48/36 11/47/36
f 24/34/37 31/27/37 37/48/37
f 31/27/38 10/44/38 37/48/38
f 32/60/39 36/45/39 10/44/39
f 32/33/40 29/24/40 36/53/40
f 29/24/41 9/41/41 36/53/41
f 30/32/42 35/42/42 9/41/42
f 30/32/43 27/21/43 35/42/43
f 27/21/44 8/38/44 35/42/44
f 28/31/45 34/39/45 8/38/45
f 28/31/46 25/30/46 34/39/46
f 25/61/47 7/35/47 34/59/47
f 26/28/48 33/36/48 7/35/48
f 26/28/49 23/15/49 33/36/49
f 23/15/50 11/47/50 33/36/50
f 31/27/51 32/60/51 10/44/51
f 31/27/52 22/26/52 32/60/52
f 22/62/53 5/63/53 32/64/53
f 29/24/54 30/32/54 9/41/54
f 29/24/55 21/23/55 30/32/55
f 21/23/56 4/19/56 30/32/56
f 27/21/57 28/31/57 8/38/57
f 27/21/58 19/20/58 28/31/58
f 19/20/59 3/29/59 28/31/59
f 25/61/60 26/28/60 7/35/60
f 25/65/61 15/66/61 26/67/61
f 15/68/62 2/13/62 26/28/62
f 23/15/63 24/34/63 11/47/63
f 23/15/64 16/14/64 24/34/64
f 16/14/65 6/25/65 24/34/65
f 17/69/66 22/70/66 6/71/66
f 17/69/67 20/10/67 22/70/67
f 20/10/68 5/22/68 22/70/68
f 20/11/69 21/72/69 5/63/69
f 20/11/70 18/73/70 21/72/70
f 18/73/71 4/74/71 21/72/71
f 18/73/72 19/75/72 4/74/72
f 18/73/73 13/3/73 19/75/73
f 13/3/74 3/76/74 19/75/74
f 16/6/75 17/69/75 6/71/75
f 16/6/76 14/5/76 17/69/76
f 14/2/77 1/1/77 17/12/77
f 13/8/78 15/77/78 3/29/78
f 13/8/79 14/5/79 15/77/79
f 14/5/80 2/4/80 15/77/80
f 41/43/81 44/54/81 43/56/81
