# Blender 4.3.2
# www.blender.org
mtllib keyboard.mtl
o Cube
v -0.129185 0.013608 0.300000
v -0.129185 0.051826 0.300000
v -0.129185 0.013608 -0.300000
v -0.129185 0.051826 -0.300000
v 0.103562 0.013608 0.300000
v 0.103562 0.041304 0.300000
v 0.103562 0.013608 -0.300000
v 0.103562 0.041304 -0.300000
v -0.129185 0.013608 -0.268647
v -0.129185 0.051826 -0.268647
v 0.103562 0.013608 -0.268647
v 0.103562 0.041304 -0.268647
v -0.129185 0.013608 0.264462
v 0.103562 0.041304 0.264462
v -0.129185 0.051826 0.264462
v 0.103562 0.013608 0.264462
v -0.086685 0.013608 -0.300000
v -0.086685 0.049905 -0.300000
v -0.086685 0.013608 0.300000
v -0.086685 0.049905 0.300000
v -0.086685 0.049905 -0.268647
v -0.086685 0.013608 -0.268647
v -0.086685 0.049905 0.264462
v -0.086685 0.013608 0.264462
v -0.109487 0.013608 -0.300000
v -0.109487 0.050936 0.300000
v -0.109487 0.013608 -0.268647
v -0.109487 0.013608 0.264462
v -0.109487 0.050936 -0.300000
v -0.109487 0.013608 0.300000
v -0.109487 0.050936 -0.268647
v -0.109487 0.050936 0.264462
v -0.129185 0.051826 -0.236843
v 0.103562 0.013608 -0.236843
v -0.129185 0.013608 -0.236843
v 0.103562 0.041304 -0.236843
v -0.086685 0.013608 -0.236843
v -0.086685 0.049905 -0.236843
v -0.109487 0.013608 -0.236843
v -0.109487 0.050936 -0.236843
v -0.129185 0.013608 0.231857
v 0.103562 0.041304 0.231857
v -0.086685 0.013608 0.231857
v -0.086685 0.049905 0.231857
v -0.109487 0.013608 0.231857
v -0.109487 0.050936 0.231857
v -0.129185 0.051826 0.231857
v 0.103562 0.013608 0.231857
v -0.109487 0.004791 -0.236843
v -0.109487 0.004791 -0.268647
v -0.086685 0.004791 -0.236843
v -0.086685 0.004791 -0.268647
v -0.109487 0.004243 0.264462
v -0.109487 0.004243 0.231857
v -0.086685 0.004243 0.264462
v -0.086685 0.004243 0.231857
vn -1.0000 -0.0000 -0.0000
vn -0.0000 -0.0000 -1.0000
vn 1.0000 -0.0000 -0.0000
vn -0.0000 -0.0000 1.0000
vn -0.0000 -1.0000 -0.0000
vn 0.0452 0.9990 -0.0000
vt 0.792003 0.949161
vt 0.973794 0.949161
vt 0.973794 0.955339
vt 0.792003 0.955339
vt 0.828002 0.823991
vt 0.828002 0.418971
vt 0.961393 0.418971
vt 0.961393 0.823991
vt 0.804214 0.522877
vt 0.804214 0.799564
vt 0.794162 0.799564
vt 0.794162 0.522877
vt 0.559914 0.443074
vt 0.559914 0.959977
vt 0.542944 0.959977
vt 0.542944 0.443074
vt 0.829986 0.785679
vt 0.956319 0.785679
vt 0.956319 0.809278
vt 0.829986 0.809278
vt 0.140708 0.328186
vt 0.140681 0.357055
vt 0.088597 0.357006
vt 0.088624 0.328137
vt 0.967977 0.328956
vt 0.967950 0.357826
vt 0.922000 0.357783
vt 0.922027 0.328914
vt 0.829986 0.410850
vt 0.956319 0.410850
vt 0.956319 0.431669
vt 0.829986 0.431669
vt 0.963884 0.522877
vt 0.963884 0.799564
vt 0.955016 0.799564
vt 0.955016 0.522877
vt 0.792003 0.942894
vt 0.973794 0.942894
vt 0.792003 0.837106
vt 0.973794 0.837106
vt 0.973794 0.844109
vt 0.792003 0.844109
vt 0.188493 0.328230
vt 0.188466 0.357099
vt 0.829986 0.764028
vt 0.956319 0.764028
vt 0.813437 0.522877
vt 0.813437 0.799564
vt 0.146158 0.721607
vt 0.170650 0.721607
vt 0.170650 0.735192
vt 0.146158 0.735192
vt 0.188784 0.015988
vt 0.188524 0.294812
vt 0.140739 0.294768
vt 0.140999 0.015944
vt 0.968268 0.016714
vt 0.968008 0.295538
vt 0.922058 0.295495
vt 0.922317 0.016672
vt 0.088655 0.294719
vt 0.088915 0.015895
vt 0.814844 0.410850
vt 0.814844 0.431669
vt 0.743457 0.443074
vt 0.743457 0.959977
vt 0.579558 0.959977
vt 0.579558 0.443074
vt 0.814844 0.785679
vt 0.814844 0.809278
vt 0.798204 0.823991
vt 0.798204 0.418971
vt 0.812015 0.418971
vt 0.812015 0.823991
vt 0.801764 0.785679
vt 0.801764 0.809278
vt 0.801764 0.410850
vt 0.801764 0.431669
vt 0.801764 0.764028
vt 0.814844 0.764028
vt 0.814844 0.452789
vt 0.801764 0.452789
vt 0.875446 0.295452
vt 0.875705 0.016628
vt 0.875415 0.328870
vt 0.946019 0.799564
vt 0.946019 0.522877
vt 0.956319 0.452789
vt 0.829986 0.452789
vt 0.875388 0.357739
vt 0.792003 0.850534
vt 0.973794 0.850534
vt 0.170650 0.513064
vt 0.170650 0.526315
vt 0.146158 0.526315
vt 0.146158 0.513064
s 0
usemtl Material
f 9/1/1 10/2/1 4/3/1 3/4/1
f 17/5/2 18/6/2 8/7/2 7/8/2
f 16/9/3 14/10/3 6/11/3 5/12/3
f 30/13/4 26/14/4 2/15/4 1/16/4
f 24/17/5 16/18/5 5/19/5 19/20/5
f 32/21/6 15/22/6 2/23/6 26/24/6
f 29/25/6 4/26/6 10/27/6 31/28/6
f 17/29/5 7/30/5 11/31/5 22/32/5
f 7/33/3 8/34/3 12/35/3 11/36/3
f 35/37/1 33/38/1 10/2/1 9/1/1
f 1/39/1 2/40/1 15/41/1 13/42/1
f 46/43/6 47/44/6 15/22/6 32/21/6
f 43/45/5 48/46/5 16/18/5 24/17/5
f 48/47/3 42/48/3 14/10/3 16/9/3
f 54/49/5 56/50/5 55/51/5 53/52/5
f 42/53/6 44/54/6 23/55/6 14/56/6
f 43/50/3 24/51/3 55/51/3 56/50/3
f 8/57/6 18/58/6 21/59/6 12/60/6
f 14/56/6 23/55/6 20/61/6 6/62/6
f 25/63/5 17/29/5 22/32/5 27/64/5
f 5/65/4 6/66/4 20/67/4 19/68/4
f 28/69/5 24/17/5 19/20/5 30/70/5
f 3/71/2 4/72/2 29/73/2 25/74/2
f 13/75/5 28/69/5 30/70/5 1/76/5
f 3/77/5 25/63/5 27/64/5 9/78/5
f 41/79/5 45/80/5 28/69/5 13/75/5
f 25/74/2 29/73/2 18/6/2 17/5/2
f 44/54/6 46/43/6 32/21/6 23/55/6
f 18/58/6 29/25/6 31/28/6 21/59/6
f 23/55/6 32/21/6 26/24/6 20/61/6
f 19/68/4 20/67/4 26/14/4 30/13/4
f 9/78/5 27/64/5 39/81/5 35/82/5
f 12/60/6 21/59/6 38/83/6 36/84/6
f 21/59/6 31/28/6 40/85/6 38/83/6
f 11/36/3 12/35/3 36/86/3 34/87/3
f 22/32/5 11/31/5 34/88/5 37/89/5
f 31/28/6 10/27/6 33/90/6 40/85/6
f 41/91/1 47/92/1 33/38/1 35/37/1
f 13/42/1 15/41/1 47/92/1 41/91/1
f 22/93/3 37/94/3 51/94/3 52/93/3
f 35/82/5 39/81/5 45/80/5 41/79/5
f 36/84/6 38/83/6 44/54/6 42/53/6
f 38/83/6 40/85/6 46/43/6 44/54/6
f 34/87/3 36/86/3 42/48/3 48/47/3
f 37/89/5 34/88/5 48/46/5 43/45/5
f 40/85/6 33/90/6 47/44/6 46/43/6
f 39/95/1 27/96/1 50/96/1 49/95/1
f 37/94/4 39/95/4 49/95/4 51/94/4
f 27/96/2 22/93/2 52/93/2 50/96/2
f 50/64/5 52/32/5 51/89/5 49/81/5
f 24/51/4 28/52/4 53/52/4 55/51/4
f 28/52/1 45/49/1 54/49/1 53/52/1
f 45/49/2 43/50/2 56/50/2 54/49/2
f 39/81/5 37/89/5 43/45/5 45/80/5
