# Blender 4.3.2
# www.blender.org
mtllib light.mtl
o Cube
v -0.500000 0.112354 0.075297
v -0.500000 0.203823 0.075297
v -0.500000 0.112354 -0.635067
v -0.500000 0.203823 -0.635067
v -0.143838 0.112354 0.075297
v -0.143838 0.203823 0.075297
v -0.143838 0.112354 -0.635067
v -0.143838 0.203823 -0.635067
v -0.691568 0.112354 -0.270296
v -0.691568 0.203823 -0.270296
v 0.071098 0.112354 -0.270296
v 0.071098 0.203823 -0.270296
v -0.665498 0.326501 -0.270742
v -0.487300 0.326501 -0.610055
v -0.155994 0.326501 -0.610055
v 0.043940 0.326501 -0.270742
v -0.155994 0.326501 0.050731
v -0.487300 0.326501 0.050731
v -0.619810 0.411823 -0.271524
v -0.465042 0.411823 -0.566222
v -0.177299 0.411823 -0.566222
v -0.003653 0.411823 -0.271524
v -0.177299 0.411823 0.007681
v -0.465042 0.411823 0.007681
v -0.361727 0.494321 -0.275941
v -0.339314 0.494321 -0.318617
v -0.297646 0.494321 -0.318617
v -0.272500 0.494321 -0.275941
v -0.297646 0.494321 -0.235508
v -0.339314 0.494321 -0.235508
v -0.361727 1.277722 -0.275941
v -0.339314 1.277722 -0.318617
v -0.297646 1.277722 -0.318617
v -0.272500 1.277722 -0.275941
v -0.297646 1.277722 -0.235508
v -0.339314 1.277722 -0.235508
v -0.320959 0.112354 -0.635067
v -0.320959 0.203823 -0.635067
v -0.320959 0.112354 0.075297
v -0.320959 0.203823 0.075297
v -0.308180 0.196709 -0.270296
v -0.320754 0.326501 -0.610055
v -0.320754 0.326501 0.050731
v -0.320395 0.411823 -0.566222
v -0.320395 0.411823 0.007681
v -0.318368 0.494321 -0.318617
v -0.318368 0.494321 -0.235508
v -0.318368 1.277722 -0.318617
v -0.318368 1.277722 -0.235508
v -0.316873 1.277722 -0.275941
vn -0.8853 -0.0000 -0.4650
vn -0.0000 -0.0000 -1.0000
vn 0.8492 -0.0000 0.5281
vn -0.0000 -0.0000 1.0000
vn -0.1478 -0.9747 -0.1676
vn 0.8466 0.1856 -0.4988
vn 0.8343 0.1866 0.5189
vn -0.1480 -0.9761 0.1591
vn 0.8616 -0.0000 -0.5077
vn -0.8746 -0.0000 0.4848
vn -0.0000 0.4505 0.8928
vn 0.7779 0.4297 -0.4584
vn -0.8596 0.1844 0.4765
vn -0.8703 0.1833 -0.4571
vn -0.0000 0.1963 0.9805
vn -0.0000 0.1998 -0.9798
vn 0.2860 0.9416 0.1779
vn -0.2977 0.9403 0.1650
vn -0.0000 0.4570 -0.8895
vn -0.7907 0.4274 0.4383
vn 0.7660 0.4316 0.4764
vn -0.8013 0.4252 -0.4208
vn -0.3031 0.9396 -0.1592
vn 0.2916 0.9410 -0.1718
vn -0.0000 0.9470 0.3213
vn -0.0000 0.9487 -0.3161
vn -0.0000 1.0000 -0.0000
vn 0.1467 -0.9779 0.1490
vn 0.1465 -0.9767 -0.1571
vt 0.658345 0.251127
vt 0.658345 0.324266
vt 0.505163 0.324266
vt 0.505163 0.251127
vt 0.361999 0.251127
vt 0.361999 0.324266
vt 0.220369 0.324266
vt 0.220369 0.251127
vt 0.346325 0.282682
vt 0.346325 0.357785
vt 0.062565 0.357785
vt 0.062565 0.282682
vt 0.345337 0.246032
vt 0.345337 0.316415
vt 0.207569 0.316415
vt 0.207569 0.246032
vt 0.609237 0.851910
vt 0.667187 0.851910
vt 0.634347 0.904713
vt 0.607284 0.904713
vt 0.048503 0.324266
vt 0.230090 0.422362
vt 0.070219 0.422362
vt 0.346691 0.458514
vt 0.082736 0.458514
vt 0.607284 0.796176
vt 0.634347 0.796176
vt 0.048503 0.251127
vt 0.648968 0.269400
vt 0.648968 0.345667
vt 0.360810 0.345667
vt 0.360810 0.269400
vt 0.345495 0.410812
vt 0.472274 0.410812
vt 0.455880 0.476466
vt 0.345771 0.476466
vt 0.247125 0.490587
vt 0.108275 0.490587
vt 0.628485 0.447957
vt 0.360438 0.447957
vt 0.637499 0.422362
vt 0.495008 0.422362
vt 0.481628 0.316415
vt 0.361835 0.422362
vt 0.118084 0.528570
vt 0.347333 0.528570
vt 0.350960 0.596308
vt 0.317762 0.596308
vt 0.359786 0.519099
vt 0.592589 0.519099
vt 0.389816 0.587887
vt 0.356104 0.587887
vt 0.477211 0.490587
vt 0.361548 0.490587
vt 0.600966 0.490587
vt 0.859042 0.420923
vt 0.859042 0.925607
vt 0.805502 0.420923
vt 0.805502 0.925607
vt 0.394597 0.556554
vt 0.376676 0.556554
vt 0.343357 0.556554
vt 0.323250 0.556554
vt 0.363276 0.539946
vt 0.347331 0.539946
vt 0.359927 0.556554
vt 0.474747 0.736542
vt 0.492102 0.734204
vt 0.492102 0.827510
vt 0.474763 0.829846
vt 0.474762 0.641853
vt 0.492102 0.639518
vt 0.824228 0.244247
vt 0.851871 0.244247
vt 0.851871 0.779842
vt 0.824228 0.779842
vt 0.831549 0.420923
vt 0.831549 0.925607
vt 0.795052 0.244247
vt 0.795052 0.779842
vt 0.457579 0.644168
vt 0.457579 0.738855
vt 0.457579 0.832160
vt 0.234469 0.476466
vt 0.331213 0.539946
vt 0.217342 0.410812
vt 0.579929 0.796176
vt 0.550659 0.851910
vt 0.579929 0.904713
vt 0.481628 0.246032
s 0
usemtl Material
f 9/1/1 10/2/1 4/3/1 3/4/1
f 37/5/2 38/6/2 8/7/2 7/8/2
f 11/9/3 12/10/3 6/11/3 5/12/3
f 39/13/4 40/14/4 2/15/4 1/16/4
f 41/17/5 11/18/5 5/19/5 39/20/5
f 12/21/6 8/7/6 15/22/6 16/23/6
f 6/11/7 12/10/7 16/24/7 17/25/7
f 37/26/8 7/27/8 11/18/8 41/17/8
f 7/8/9 8/7/9 12/21/9 11/28/9
f 1/29/10 2/30/10 10/31/10 9/32/10
f 43/33/11 17/34/11 23/35/11 45/36/11
f 16/23/12 15/22/12 21/37/12 22/38/12
f 10/31/13 2/30/13 18/39/13 13/40/13
f 4/3/14 10/2/14 13/41/14 14/42/14
f 40/14/15 6/43/15 17/34/15 43/33/15
f 38/6/16 4/3/16 14/42/16 42/44/16
f 23/45/17 22/46/17 28/47/17 29/48/17
f 19/49/18 24/50/18 30/51/18 25/52/18
f 42/44/19 14/42/19 20/53/19 44/54/19
f 13/40/20 18/39/20 24/50/20 19/49/20
f 17/25/21 16/24/21 22/46/21 23/45/21
f 14/42/22 13/41/22 19/55/22 20/53/22
f 46/56/2 26/56/2 32/57/2 48/57/2
f 47/58/4 29/58/4 35/59/4 49/59/4
f 20/53/23 19/55/23 25/60/23 26/61/23
f 22/38/24 21/37/24 27/62/24 28/63/24
f 45/36/25 23/35/25 29/64/25 47/65/25
f 44/54/26 20/53/26 26/61/26 46/66/26
f 50/67/27 31/68/27 36/69/27 49/70/27
f 48/71/27 32/72/27 31/68/27 50/67/27
f 25/73/10 30/74/10 36/75/10 31/76/10
f 29/58/3 28/77/3 34/78/3 35/59/3
f 26/79/1 25/73/1 31/76/1 32/80/1
f 28/77/9 27/56/9 33/57/9 34/78/9
f 33/81/27 48/71/27 50/67/27 34/82/27
f 34/82/27 50/67/27 49/70/27 35/83/27
f 21/37/26 44/54/26 46/66/26 27/62/26
f 24/84/25 45/36/25 47/65/25 30/85/25
f 30/58/4 47/58/4 49/59/4 36/59/4
f 27/56/2 46/56/2 48/57/2 33/57/2
f 15/22/19 42/44/19 44/54/19 21/37/19
f 8/7/16 38/6/16 42/44/16 15/22/16
f 2/15/15 40/14/15 43/33/15 18/86/15
f 18/86/11 43/33/11 45/36/11 24/84/11
f 3/87/28 37/26/28 41/17/28 9/88/28
f 9/88/29 41/17/29 39/20/29 1/89/29
f 5/90/4 6/43/4 40/14/4 39/13/4
f 3/4/2 4/3/2 38/6/2 37/5/2
