# Blender 4.3.2
# www.blender.org
mtllib road.mtl
o Cube.001
v 3.207100 -0.250553 1.244583
v 2.525070 -0.159039 1.169024
v -45.860275 -0.250553 1.241579
v -45.178238 -0.159039 1.166103
v 3.207433 -0.250553 -4.188334
v 2.525393 -0.159039 -4.112859
v -45.859943 -0.250553 -4.191339
v -45.177914 -0.159039 -4.115779
v -47.018730 -0.546692 1.369775
v 4.365538 -0.546692 1.372921
v -47.018383 -0.546692 -4.319677
v 4.365886 -0.546692 -4.316530
vn -0.0000 0.6365 0.7713
vn -0.1330 0.9911 -0.0000
vn -0.0000 0.6365 -0.7713
vn 0.1330 0.9911 -0.0000
vn -0.2477 0.9688 -0.0000
vn -0.0000 1.0000 -0.0000
vn -0.0000 -1.0000 -0.0000
vn -0.0001 0.3975 0.9176
vn 0.0001 0.3975 -0.9176
vn 0.2477 0.9688 -0.0000
vt 0.375000 0.000000
vt 0.625000 0.000000
vt 0.625000 0.250000
vt 0.375000 0.250000
vt 0.625000 0.500000
vt 0.375000 0.500000
vt 0.625000 0.750000
vt 0.375000 0.750000
vt 0.625000 1.000000
vt 0.375000 1.000000
vt 0.042139 0.736837
vt 0.042133 0.641247
vt 0.905452 0.641194
vt 0.905458 0.736784
vt 0.125000 0.500000
vt 0.125000 0.750000
s 0
usemtl Material.001
f 1/1/1 2/2/1 4/3/1 3/4/1
f 3/4/2 4/3/2 8/5/2 7/6/2
f 7/6/3 8/5/3 6/7/3 5/8/3
f 5/8/4 6/7/4 2/9/4 1/10/4
f 3/4/5 7/6/5 11/6/5 9/4/5
f 8/11/6 4/12/6 2/13/6 6/14/6
f 9/15/7 11/6/7 12/8/7 10/16/7
f 1/1/8 3/4/8 9/4/8 10/1/8
f 7/6/9 5/8/9 12/8/9 11/6/9
f 5/8/10 1/10/10 10/10/10 12/8/10
o Cube
v -24.560930 -0.939770 5.473581
v -24.560930 -0.593961 5.473581
v -24.560930 -0.555805 0.953433
v -24.560930 -0.209996 0.953433
v -21.177151 -0.939770 5.473581
v -21.177151 -0.593961 5.473581
v -21.177151 -0.555805 0.953433
v -21.177151 -0.209996 0.953433
vn -1.0000 -0.0000 -0.0000
vn -0.0000 -0.0000 -1.0000
vn 1.0000 -0.0000 -0.0000
vn -0.0000 -0.0000 1.0000
vn -0.0000 -0.9964 -0.0846
vn -0.0000 0.9964 0.0846
vt 0.375000 0.000000
vt 0.625000 0.000000
vt 0.625000 0.250000
vt 0.375000 0.250000
vt 0.625000 0.500000
vt 0.375000 0.500000
vt 0.625000 0.750000
vt 0.375000 0.750000
vt 0.625000 1.000000
vt 0.375000 1.000000
vt 0.125000 0.500000
vt 0.125000 0.750000
vt 0.171283 0.044248
vt 0.321613 0.044248
vt 0.321613 0.227367
vt 0.171283 0.227367
s 0
usemtl Material.001
f 13/17/11 14/18/11 16/19/11 15/20/11
f 15/20/12 16/19/12 20/21/12 19/22/12
f 19/22/13 20/21/13 18/23/13 17/24/13
f 17/24/14 18/23/14 14/25/14 13/26/14
f 15/27/15 19/22/15 17/24/15 13/28/15
f 20/29/16 16/30/16 14/31/16 18/32/16
