# Blender 4.5.0
# www.blender.org
mtllib school_chair.mtl
o Cube
v 0.405518 -0.135637 -0.338058
v 0.405518 -0.128757 -0.300000
v 0.405518 -0.154863 -0.338058
v 0.405518 -0.154863 -0.300000
v -0.031373 -0.123598 0.067572
v -0.031373 -0.154863 0.070010
v -0.031373 -0.128757 -0.300000
v -0.031373 -0.135637 -0.338058
v -0.031373 -0.154863 -0.300000
v -0.031373 -0.154863 -0.338058
v -0.002391 -0.154863 -0.338058
v -0.002391 -0.135637 -0.338058
v 0.377630 -0.135637 -0.338058
v 0.377630 -0.154863 -0.338058
v 0.405518 -0.123598 0.067572
v 0.405518 -0.154863 0.070010
v -0.002391 -0.154863 0.070010
v -0.002391 -0.123598 0.067572
v -0.002391 -0.154863 -0.300000
v -0.002391 -0.128757 -0.300000
v 0.377630 -0.154863 0.070010
v 0.377630 -0.123598 0.067572
v 0.377630 -0.154863 -0.300000
v 0.377630 -0.128757 -0.300000
v 0.187620 -0.135637 -0.338058
v 0.187620 -0.154863 -0.338058
v 0.187620 -0.154863 -0.300000
v 0.187620 -0.135637 -0.300000
v 0.187620 -0.154863 0.070010
v 0.187620 -0.130477 0.067572
v -0.031373 -0.149264 0.099572
v -0.031373 -0.128757 0.107071
v 0.405518 -0.128757 0.107071
v 0.377630 -0.128757 0.107071
v 0.377630 -0.149264 0.099572
v 0.405518 -0.149264 0.099572
v -0.002391 -0.128757 0.107071
v -0.002391 -0.149264 0.099572
v 0.187620 -0.149264 0.099572
v 0.187620 -0.135637 0.107071
v 0.395321 0.365721 0.070010
v 0.377630 0.376566 0.070010
v -0.002391 0.376566 0.070010
v -0.021175 0.365721 0.070010
v -0.002391 0.376566 0.107071
v 0.187620 0.406377 0.070010
v -0.021175 0.365721 0.107071
v 0.395321 0.365721 0.107071
v 0.377630 0.376566 0.107071
v 0.187620 0.406377 0.107071
v -0.002391 0.083683 0.107071
v 0.405518 0.079123 0.070010
v 0.377630 0.083683 0.070010
v -0.031373 0.079123 0.107071
v -0.002391 0.083683 0.070010
v 0.187620 0.117317 0.070010
v 0.377630 0.083683 0.107071
v 0.187620 0.116577 0.107071
v 0.405518 0.079123 0.107071
v -0.031373 0.079123 0.070010
v 0.405518 -0.061294 0.070010
v -0.031373 -0.061294 0.107071
v 0.187620 -0.070601 0.107071
v 0.405518 -0.061294 0.107071
v -0.002391 -0.059815 0.107071
v 0.377630 -0.059815 0.070010
v -0.002391 -0.059815 0.070010
v 0.377630 -0.059815 0.107071
v -0.031373 -0.061294 0.070010
v 0.343919 -0.135637 -0.338058
v 0.343919 -0.129978 -0.300000
v 0.343919 -0.154863 0.070010
v 0.343919 -0.154863 -0.338058
v 0.343919 -0.154863 -0.300000
v 0.343919 -0.124818 0.067572
v 0.343919 -0.149264 0.099572
v 0.343919 -0.129978 0.107071
v 0.343919 0.381855 0.070010
v 0.343919 0.381855 0.107071
v 0.343919 0.085199 0.070010
v 0.343919 0.085199 0.107071
v 0.343919 -0.060147 0.107071
v 0.343919 -0.060147 0.070010
v 0.032546 -0.154863 -0.338058
v 0.032546 -0.154863 -0.300000
v 0.032546 -0.124863 0.067572
v 0.032546 -0.135637 -0.338058
v 0.032546 -0.130022 -0.300000
v 0.032546 -0.154863 0.070010
v 0.032546 -0.130022 0.107071
v 0.032546 -0.149264 0.099572
v 0.032546 0.382047 0.070010
v 0.032546 0.382047 0.107071
v 0.032546 0.085254 0.107071
v 0.032546 0.085254 0.070010
v 0.032546 -0.060159 0.107071
v 0.343919 0.085199 0.070940
v 0.187620 0.116577 0.070940
v 0.187620 -0.070601 0.070475
v 0.343919 -0.060147 0.070940
v 0.032546 0.085254 0.070940
v 0.032546 -0.060159 0.070475
v -0.016226 -0.201703 -0.271506
v -0.008726 -0.211174 -0.262615
v -0.016226 -0.166895 -0.027850
v -0.016226 -0.166895 -0.215217
v -0.008726 -0.179885 -0.027850
v -0.008726 -0.179885 -0.215217
v 0.006274 -0.179885 -0.027850
v 0.006274 -0.179885 -0.215217
v 0.013774 -0.166895 -0.027850
v 0.013774 -0.166895 -0.215217
v 0.006274 -0.153905 -0.027850
v 0.006274 -0.153905 -0.215217
v -0.008726 -0.153905 -0.027850
v -0.008726 -0.153905 -0.215217
v 0.006274 -0.211174 -0.262615
v 0.013774 -0.201703 -0.271506
v 0.006274 -0.192232 -0.280397
v -0.008726 -0.192232 -0.280397
v -0.016226 -0.245564 -0.298018
v -0.008726 -0.245450 -0.311007
v 0.006274 -0.245450 -0.311007
v 0.013774 -0.245564 -0.298018
v 0.006274 -0.245678 -0.285028
v -0.008726 -0.245678 -0.285028
v -0.016226 -0.486711 -0.298018
v -0.008726 -0.486597 -0.311007
v 0.006274 -0.486597 -0.311007
v 0.013774 -0.486711 -0.298018
v 0.006274 -0.486825 -0.285028
v -0.008726 -0.486825 -0.285028
v -0.016226 -0.207196 0.060900
v -0.008726 -0.217263 0.052691
v 0.006274 -0.217263 0.052691
v 0.013774 -0.207196 0.060900
v 0.006274 -0.197128 0.069110
v -0.008726 -0.197128 0.069110
v -0.016226 -0.292319 0.103126
v -0.008726 -0.291904 0.090142
v 0.006274 -0.291904 0.090142
v 0.013774 -0.292319 0.103126
v 0.006274 -0.292735 0.116109
v -0.008726 -0.292735 0.116109
v -0.016226 -0.498803 0.123836
v -0.008726 -0.498387 0.110852
v 0.006274 -0.498387 0.110852
v 0.013774 -0.498803 0.123836
v 0.006274 -0.499218 0.136820
v -0.008726 -0.499218 0.136820
v 0.351445 -0.201703 -0.271506
v 0.358945 -0.211174 -0.262615
v 0.351445 -0.166895 -0.027850
v 0.351445 -0.166895 -0.215217
v 0.358945 -0.179885 -0.027850
v 0.358945 -0.179885 -0.215217
v 0.373945 -0.179885 -0.027850
v 0.373945 -0.179885 -0.215217
v 0.381445 -0.166895 -0.027850
v 0.381445 -0.166895 -0.215217
v 0.373945 -0.153905 -0.027850
v 0.373945 -0.153905 -0.215217
v 0.358945 -0.153905 -0.027850
v 0.358945 -0.153905 -0.215217
v 0.373945 -0.211174 -0.262615
v 0.381445 -0.201703 -0.271506
v 0.373945 -0.192232 -0.280397
v 0.358945 -0.192232 -0.280397
v 0.351445 -0.245564 -0.298018
v 0.358945 -0.245450 -0.311007
v 0.373945 -0.245450 -0.311007
v 0.381445 -0.245564 -0.298018
v 0.373945 -0.245678 -0.285028
v 0.358945 -0.245678 -0.285028
v 0.351445 -0.486711 -0.298018
v 0.358945 -0.486597 -0.311007
v 0.373945 -0.486597 -0.311007
v 0.381445 -0.486711 -0.298018
v 0.373945 -0.486825 -0.285028
v 0.358945 -0.486825 -0.285028
v 0.351445 -0.207196 0.060900
v 0.358945 -0.217263 0.052691
v 0.373945 -0.217263 0.052691
v 0.381445 -0.207196 0.060900
v 0.373945 -0.197128 0.069110
v 0.358945 -0.197128 0.069110
v 0.351445 -0.292319 0.103126
v 0.358945 -0.291904 0.090142
v 0.373945 -0.291904 0.090142
v 0.381445 -0.292319 0.103126
v 0.373945 -0.292735 0.116109
v 0.358945 -0.292735 0.116109
v 0.351445 -0.498803 0.123836
v 0.358945 -0.498387 0.110852
v 0.373945 -0.498387 0.110852
v 0.381445 -0.498803 0.123836
v 0.373945 -0.499218 0.136820
v 0.358945 -0.499218 0.136820
vn -0.0000 -1.0000 -0.0000
vn -0.0000 -0.9825 0.1861
vn -0.0000 0.9841 -0.1779
vn -0.0000 -0.0000 -1.0000
vn -0.0000 0.9999 -0.0140
vn 1.0000 -0.0000 -0.0000
vn -1.0000 -0.0000 -0.0000
vn -0.0179 0.9865 -0.1625
vn 0.0362 0.9992 -0.0140
vn -0.0362 0.9992 -0.0140
vn -0.0000 -0.0000 1.0000
vn 0.0181 0.9971 -0.0735
vn -0.0000 -0.3434 0.9392
vn -0.0064 -0.3530 0.9356
vn 0.0075 -0.4146 0.9100
vn -0.5000 0.8660 -0.0000
vn 0.1550 0.9879 -0.0000
vn 0.5227 0.8525 -0.0000
vn -0.1550 0.9879 -0.0000
vn 0.9994 0.0356 -0.0000
vn -0.9994 0.0356 -0.0000
vn 0.1980 -0.9802 -0.0000
vn 0.0067 -0.0016 -1.0000
vn 0.0076 0.0415 -0.9991
vn 0.0010 0.0386 -0.9993
vn -0.0010 0.0386 -0.9993
vn -0.0037 0.0428 -0.9991
vn -0.0009 0.0379 -0.9993
vn 0.0064 -0.3527 0.9357
vn -0.0180 0.9971 -0.0741
vn 0.0024 0.0465 -0.9989
vn -0.0075 -0.4151 0.9097
vn 0.0179 0.9866 -0.1619
vn -0.0667 0.9978 -0.0000
vn 0.0672 0.9977 -0.0000
vn -0.1968 -0.9804 -0.0000
vn -0.0000 0.4986 -0.8668
vn -0.8452 -0.4507 0.2873
vn -0.8660 -0.5000 -0.0000
vn 0.8443 -0.2838 0.4545
vn -0.8463 0.4564 -0.2748
vn -0.8452 0.2711 -0.4607
vn -0.0000 -0.8346 0.5509
vn 0.8660 -0.5000 -0.0000
vn -0.0000 0.8620 -0.5069
vn 0.8660 0.5000 -0.0000
vn 0.8463 0.4564 -0.2748
vn -0.8443 -0.2838 0.4545
vn -0.0000 1.0000 -0.0000
vn 0.8452 0.2711 -0.4607
vn 0.8452 -0.4507 0.2873
vn -0.8660 0.5000 -0.0000
vn 0.8517 -0.4763 -0.2185
vn -0.0000 -0.5447 0.8386
vn -0.0000 -1.0000 -0.0088
vn 0.8660 -0.0000 -0.5000
vn -0.8660 -0.0000 -0.5000
vn -0.8660 -0.0000 0.5000
vn 0.8660 -0.0000 0.5000
vn -0.0000 0.4412 0.8974
vn 0.8519 0.4777 0.2148
vn -0.8519 0.4777 0.2148
vn -0.0000 0.9134 0.4072
vn -0.8517 -0.4763 -0.2185
vn -0.0000 -0.9071 -0.4210
vn 0.8641 0.0502 0.5008
vn 0.8405 -0.2418 -0.4848
vn -0.8405 -0.2418 -0.4848
vn -0.8406 0.2398 0.4857
vn 0.8406 0.2398 0.4857
vn -0.0000 -0.4485 -0.8938
vn -0.0000 -0.9995 -0.0320
vn -0.0000 -0.0998 -0.9950
vn -0.0000 0.0998 0.9950
vn 0.8641 -0.0502 -0.5008
vn -0.8641 -0.0502 -0.5008
vn -0.8641 0.0502 0.5008
vt 0.147983 0.500000
vt 0.125000 0.500000
vt 0.147983 0.500000
vt 0.382801 0.425926
vt 0.404874 0.425740
vt 0.407126 0.428542
vt 0.384458 0.428716
vt 0.561098 0.334556
vt 0.561098 0.327827
vt 0.589447 0.327827
vt 0.589447 0.334556
vt 0.222357 0.309021
vt 0.222357 0.327827
vt 0.189382 0.327827
vt 0.189382 0.309021
vt 0.551925 0.403694
vt 0.266065 0.406813
vt 0.266818 0.405853
vt 0.561815 0.402665
vt 0.189382 0.334556
vt 0.162103 0.334556
vt 0.162103 0.327827
vt 0.375000 0.750000
vt 0.375000 0.500000
vt 0.162103 0.309021
vt 0.562374 0.381555
vt 0.264712 0.379716
vt 0.625000 0.500000
vt 0.259148 0.415629
vt 0.460168 0.413244
vt 0.455360 0.413745
vt 0.258789 0.416086
vt 0.153564 0.427859
vt 0.170256 0.427718
vt 0.166542 0.430390
vt 0.149456 0.430521
vt 0.561098 0.309021
vt 0.589447 0.309021
vt 0.466512 0.509992
vt 0.464915 0.534158
vt 0.154713 0.506618
vt 0.155545 0.483616
vt 0.117904 0.497646
vt 0.118616 0.480484
vt 0.125000 0.750000
vt 0.222357 0.333362
vt 0.190591 0.427547
vt 0.283772 0.426761
vt 0.282844 0.429497
vt 0.187362 0.430230
vt 0.352823 0.500000
vt 0.352823 0.750000
vt 0.466274 0.411896
vt 0.259600 0.414318
vt 0.102553 0.498713
vt 0.078333 0.490298
vt 0.282325 0.491857
vt 0.284045 0.500297
vt 0.250000 0.500000
vt 0.250000 0.750000
vt 0.147983 0.750000
vt 0.381224 0.578828
vt 0.403642 0.578599
vt 0.398691 0.760016
vt 0.376739 0.761429
vt 0.526925 0.333319
vt 0.375240 0.327827
vt 0.526925 0.327827
vt 0.526925 0.309021
vt 0.375240 0.309021
vt 0.407375 0.441792
vt 0.426088 0.428397
vt 0.426439 0.441713
vt 0.165590 0.442793
vt 0.148425 0.442864
vt 0.186508 0.441927
vt 0.384606 0.441092
vt 0.282506 0.437953
vt 0.526925 0.543891
vt 0.561098 0.542354
vt 0.561098 0.828837
vt 0.526925 0.834198
vt 0.148892 0.567650
vt 0.165806 0.570893
vt 0.166094 0.741183
vt 0.155326 0.734151
vt 0.488182 0.516124
vt 0.493801 0.532326
vt 0.162103 0.537894
vt 0.189382 0.542354
vt 0.189382 0.828837
vt 0.172078 0.818229
vt 0.233920 0.401427
vt 0.240085 0.384266
vt 0.423333 0.425584
vt 0.491158 0.803094
vt 0.490864 0.800941
vt 0.515888 0.801838
vt 0.515727 0.803981
vt 0.162149 0.522030
vt 0.353824 0.522030
vt 0.353824 0.567478
vt 0.162149 0.567478
vt 0.265791 0.793607
vt 0.265377 0.794700
vt 0.236684 0.795834
vt 0.236499 0.794761
vt 0.543995 0.522030
vt 0.586839 0.522030
vt 0.586839 0.567478
vt 0.543995 0.567478
vt 0.234996 0.572484
vt 0.265329 0.572029
vt 0.422459 0.576302
vt 0.410463 0.754359
vt 0.589447 0.537894
vt 0.579472 0.818229
vt 0.186402 0.572498
vt 0.280575 0.594732
vt 0.278444 0.767757
vt 0.186260 0.745953
vt 0.153991 0.564317
vt 0.160143 0.725938
vt 0.379181 0.574922
vt 0.281728 0.590877
vt 0.279644 0.758260
vt 0.374882 0.751864
vt 0.491495 0.513485
vt 0.517221 0.513445
vt 0.516802 0.610322
vt 0.491226 0.610041
vt 0.190309 0.569069
vt 0.281705 0.590544
vt 0.561098 0.401992
vt 0.589447 0.400545
vt 0.406150 0.486687
vt 0.425133 0.485872
vt 0.234273 0.457588
vt 0.264962 0.457515
vt 0.162103 0.400545
vt 0.189382 0.401992
vt 0.148578 0.483774
vt 0.165661 0.484801
vt 0.526925 0.401655
vt 0.383496 0.486295
vt 0.526925 0.338366
vt 0.561098 0.339603
vt 0.162103 0.339603
vt 0.189382 0.339603
vt 0.589447 0.339603
vt 0.282001 0.478952
vt 0.186473 0.484754
vt 0.489924 0.470293
vt 0.517425 0.466495
vt 0.222357 0.338409
vt 0.375240 0.332874
vt 0.375240 0.391442
vt 0.222357 0.401667
vt 0.379231 0.575017
vt 0.381409 0.485376
vt 0.403258 0.485727
vt 0.381357 0.485353
vt 0.400862 0.574677
vt 0.222357 0.543837
vt 0.222357 0.834010
vt 0.120808 0.522030
vt 0.120808 0.567478
vt 0.540783 0.403936
vt 0.265213 0.406947
vt 0.190407 0.568984
vt 0.190187 0.737326
vt 0.498124 0.404864
vt 0.261971 0.407457
vt 0.190469 0.483918
vt 0.402678 0.518993
vt 0.493240 0.504135
vt 0.494730 0.522174
vt 0.405676 0.536588
vt 0.316996 0.538885
vt 0.321394 0.555984
vt 0.927670 0.419224
vt 0.917709 0.419224
vt 0.917709 0.383884
vt 0.927670 0.383884
vt 0.693023 0.497735
vt 0.693023 0.506361
vt 0.655645 0.483247
vt 0.661549 0.476958
vt 0.817444 0.506361
vt 0.817444 0.497735
vt 0.932164 0.419051
vt 0.926548 0.413246
vt 0.940898 0.392584
vt 0.949394 0.392645
vt 0.932650 0.436049
vt 0.927670 0.444675
vt 0.932650 0.412934
vt 0.863114 0.537990
vt 0.913696 0.456449
vt 0.920321 0.460418
vt 0.869791 0.542059
vt 0.932650 0.383809
vt 0.927872 0.431441
vt 0.934641 0.435475
vt 0.788978 0.431075
vt 0.897733 0.431636
vt 0.897807 0.439527
vt 0.788618 0.438846
vt 0.942870 0.420090
vt 0.935926 0.415965
vt 0.953450 0.365710
vt 0.962000 0.370741
vt 0.917709 0.444675
vt 0.754590 0.325272
vt 0.978710 0.326669
vt 0.977484 0.341649
vt 0.755196 0.340042
vt 0.897210 0.446825
vt 0.936667 0.424534
vt 0.638040 0.454121
vt 0.646666 0.454045
vt 0.333333 0.500000
vt 0.333333 1.000000
vt 0.166667 1.000000
vt 0.166667 0.500000
vt 0.956576 0.392719
vt 0.817444 0.514988
vt 0.693023 0.514988
vt 0.737795 0.415185
vt 0.743032 0.409222
vt 0.953577 0.356164
vt 0.962225 0.351649
vt 0.970760 0.356657
vt 0.970662 0.366203
vt 0.956764 0.239960
vt 0.964205 0.240866
vt 0.927670 0.223752
vt 0.932650 0.223676
vt 0.638040 0.293989
vt 0.646666 0.293913
vt 0.947859 0.241054
vt 0.955172 0.392732
vt 0.962644 0.242831
vt 0.969693 0.204084
vt 0.983383 0.204084
vt 0.983383 0.291339
vt 0.969693 0.291339
vt 0.788913 0.446042
vt 0.733845 0.420863
vt 0.983383 0.164636
vt 0.990228 0.176491
vt 0.990228 0.213272
vt 0.969693 0.164636
vt 0.870926 0.472914
vt 0.876378 0.479600
vt 0.847340 0.576116
vt 0.840447 0.571885
vt 0.712992 0.364964
vt 0.706382 0.364922
vt 0.691901 0.238500
vt 0.698622 0.237615
vt 0.721199 0.365356
vt 0.895796 0.423350
vt 0.904418 0.423074
vt 0.990228 0.290959
vt 0.835279 0.590751
vt 0.827951 0.586239
vt 0.804700 0.593274
vt 0.813916 0.588350
vt 0.822751 0.593799
vt 0.822389 0.604202
vt 0.813157 0.609159
vt 0.804303 0.603680
vt 0.827369 0.603461
vt 0.820027 0.598927
vt 0.707174 0.238696
vt 0.716100 0.365652
vt 0.722665 0.365698
vt 0.708862 0.240624
vt 0.702185 0.241472
vt 0.990228 0.479405
vt 0.983383 0.479785
vt 0.683519 0.419224
vt 0.673558 0.419224
vt 0.673558 0.383884
vt 0.683519 0.383884
vt 0.833333 1.000000
vt 1.000000 1.000000
vt 1.000000 0.500000
vt 0.833333 0.500000
vt 0.971386 0.430164
vt 0.963021 0.421744
vt 0.984089 0.392072
vt 0.996825 0.392154
vt 0.688499 0.436049
vt 0.683519 0.444675
vt 0.688499 0.412934
vt 0.666667 1.000000
vt 0.666667 0.500000
vt 0.688499 0.383809
vt 0.921345 0.447937
vt 0.919991 0.447002
vt 0.960922 0.421255
vt 0.500000 1.000000
vt 0.500000 0.500000
vt 0.673558 0.444675
vt 0.920456 0.469523
vt 0.921588 0.459337
vt 0.977451 0.437918
vt 1.006824 0.392266
vt -0.000000 1.000000
vt -0.000000 0.500000
vt 0.766288 0.446796
vt 0.765648 0.457948
vt 0.693332 0.424259
vt 0.701013 0.415737
vt 0.981596 0.392101
vt 0.457846 0.370000
vt 0.250000 0.490000
vt 0.042154 0.370000
vt 0.042154 0.130000
vt 0.250000 0.010000
vt 0.457846 0.130000
vt 0.668577 0.383809
vt 0.668577 0.223676
vt 0.673558 0.223752
vt 0.683519 0.223752
vt 0.688499 0.223676
vt 0.634140 0.204084
vt 0.647829 0.204084
vt 0.647829 0.291339
vt 0.634140 0.291339
vt 0.766330 0.467938
vt 0.688252 0.432206
vt 0.647829 0.164636
vt 0.654674 0.176491
vt 0.654674 0.213272
vt 0.634140 0.164636
vt 0.767582 0.445900
vt 0.703407 0.415365
vt 0.657211 0.352600
vt 0.648351 0.352665
vt 0.624675 0.169361
vt 0.633707 0.167343
vt 0.669325 0.353251
vt 0.654674 0.290959
vt 0.672292 0.353943
vt 0.750000 0.490000
vt 0.957846 0.370000
vt 0.957846 0.130000
vt 0.750000 0.010000
vt 0.542154 0.130000
vt 0.542154 0.370000
vt 0.646576 0.169444
vt 0.650089 0.173458
vt 0.647829 0.479785
vt 0.634140 0.479785
vt 0.688499 0.352761
vt 0.683519 0.353037
vt 0.683519 0.215923
vt 0.688499 0.215646
vt 0.654674 0.479405
s 0
usemtl Material.001
f 85/1/1 19/2/1 11/2/1 84/3/1
f 72/4/2 21/5/2 35/6/2 76/7/2
f 20/8/3 12/9/3 8/10/3 7/11/3
f 73/12/4 70/13/4 13/14/4 14/15/4
f 24/16/5 22/17/5 15/18/5 2/19/5
f 13/14/3 24/20/3 2/21/3 1/22/3
f 21/23/1 23/24/1 4/24/1 16/23/1
f 14/15/4 13/14/4 1/22/4 3/25/4
f 4/26/6 2/19/6 15/18/6 16/27/6
f 2/28/6 4/24/6 3/24/6 1/28/6
f 18/29/5 20/30/5 7/31/5 5/32/5
f 11/2/1 19/2/1 9/2/1 10/2/1
f 6/33/2 17/34/2 38/35/2 31/36/2
f 12/9/4 11/37/4 10/38/4 8/10/4
f 6/39/7 5/40/7 7/41/7 9/42/7
f 9/42/7 7/41/7 8/43/7 10/44/7
f 19/2/1 17/45/1 6/45/1 9/2/1
f 71/46/8 24/20/8 13/14/8 70/13/8
f 23/24/1 14/24/1 3/24/1 4/24/1
f 89/47/2 29/48/2 39/49/2 91/50/2
f 74/51/1 23/24/1 21/23/1 72/52/1
f 88/53/9 20/30/9 18/29/9 86/54/9
f 71/55/10 28/56/10 30/57/10 75/58/10
f 85/1/1 27/59/1 29/60/1 89/61/1
f 81/62/11 57/63/11 49/64/11 79/65/11
f 88/66/12 28/67/12 25/67/12 87/68/12
f 84/69/4 87/68/4 25/67/4 26/70/4
f 74/51/1 27/59/1 26/59/1 73/51/1
f 34/71/13 35/6/13 36/72/13 33/73/13
f 38/35/13 37/74/13 32/75/13 31/36/13
f 91/50/14 90/76/14 37/74/14 38/35/14
f 76/7/15 77/77/15 40/78/15 39/49/15
f 95/79/4 55/80/4 43/81/4 92/82/4
f 54/83/11 51/84/11 45/85/11 47/86/11
f 5/40/7 6/39/7 31/87/7 32/88/7
f 52/89/4 53/90/4 42/91/4 41/92/4
f 16/27/6 15/18/6 33/93/6 36/94/6
f 21/5/2 16/95/2 36/72/2 35/6/2
f 43/96/16 44/97/16 47/98/16 45/99/16
f 78/100/17 46/101/17 50/102/17 79/103/17
f 41/104/18 42/105/18 49/106/18 48/107/18
f 92/108/19 43/109/19 45/110/19 93/111/19
f 59/112/20 52/113/20 41/104/20 48/107/20
f 57/63/11 59/114/11 48/115/11 49/64/11
f 55/80/4 60/116/4 44/117/4 43/81/4
f 94/118/11 58/119/11 50/120/11 93/121/11
f 60/122/21 54/83/21 47/86/21 44/123/21
f 80/124/4 56/125/4 46/126/4 78/127/4
f 69/128/7 62/129/7 54/130/7 60/131/7
f 58/119/22 94/118/22 101/132/22 98/133/22
f 67/134/4 69/135/4 60/116/4 55/80/4
f 68/136/11 64/137/11 59/114/11 57/63/11
f 64/138/6 61/139/6 52/113/6 59/112/6
f 61/140/4 66/141/4 53/90/4 52/89/4
f 62/142/11 65/143/11 51/84/11 54/83/11
f 102/144/23 67/134/23 55/80/23 95/79/23
f 82/145/11 68/136/11 57/63/11 81/62/11
f 77/77/11 34/71/11 68/136/11 82/145/11
f 86/146/24 18/147/24 67/134/24 102/144/24
f 32/75/11 37/74/11 65/143/11 62/142/11
f 15/148/25 22/149/25 66/141/25 61/140/25
f 33/93/6 15/18/6 61/139/6 64/138/6
f 34/71/11 33/73/11 64/137/11 68/136/11
f 18/147/26 5/150/26 69/135/26 67/134/26
f 90/76/11 40/78/11 63/151/11 96/152/11
f 5/153/7 32/154/7 62/129/7 69/128/7
f 75/155/27 30/156/27 99/157/27 83/158/27
f 22/149/28 75/155/28 83/158/28 66/141/28
f 40/78/11 77/77/11 82/145/11 63/151/11
f 82/145/7 81/62/7 97/159/7 100/160/7
f 66/161/4 83/162/4 80/124/4 53/163/4
f 53/90/4 80/164/4 78/165/4 42/91/4
f 42/166/17 78/100/17 79/103/17 49/167/17
f 35/6/29 34/71/29 77/77/29 76/7/29
f 23/24/1 74/51/1 73/51/1 14/24/1
f 58/119/11 81/62/11 79/65/11 50/120/11
f 24/16/10 71/168/10 75/169/10 22/17/10
f 27/59/1 74/51/1 72/52/1 29/60/1
f 28/67/30 71/46/30 70/13/30 25/67/30
f 26/70/4 25/67/4 70/13/4 73/12/4
f 29/48/2 72/4/2 76/7/2 39/49/2
f 37/74/11 90/76/11 96/152/11 65/143/11
f 30/156/31 86/146/31 102/144/31 99/157/31
f 65/143/11 96/152/11 94/118/11 51/84/11
f 51/84/11 94/118/11 93/121/11 45/85/11
f 46/101/19 92/108/19 93/111/19 50/102/19
f 56/125/4 95/170/4 92/171/4 46/126/4
f 39/49/32 40/78/32 90/76/32 91/50/32
f 11/37/4 12/9/4 87/68/4 84/69/4
f 20/8/33 88/66/33 87/68/33 12/9/33
f 19/2/1 85/1/1 89/61/1 17/45/1
f 28/172/9 88/53/9 86/54/9 30/173/9
f 17/34/2 89/47/2 91/50/2 38/35/2
f 27/59/1 85/1/1 84/3/1 26/59/1
f 94/118/6 96/152/6 102/174/6 101/132/6
f 63/175/34 82/176/34 100/177/34 99/178/34
f 96/179/35 63/175/35 99/178/35 102/180/35
f 81/62/36 58/119/36 98/133/36 97/159/36
f 120/181/37 119/182/37 123/183/37 122/184/37
f 108/185/38 106/186/38 103/187/38 104/188/38
f 105/189/39 106/186/39 108/185/39 107/190/39
f 118/191/40 117/192/40 125/193/40 124/194/40
f 106/195/41 116/196/41 120/181/41 103/197/41
f 107/198/1 108/199/1 110/200/1 109/201/1
f 103/197/42 120/181/42 122/184/42 121/202/42
f 110/200/43 108/199/43 104/203/43 117/204/43
f 109/205/44 110/206/44 112/207/44 111/208/44
f 125/209/11 126/210/11 132/211/11 131/212/11
f 116/196/45 114/213/45 119/182/45 120/181/45
f 111/214/46 112/215/46 114/216/46 113/217/46
f 114/218/47 112/207/47 118/191/47 119/219/47
f 104/188/48 103/187/48 121/220/48 126/221/48
f 113/222/49 114/223/49 116/224/49 115/225/49
f 119/219/50 118/191/50 124/194/50 123/226/50
f 112/207/51 110/206/51 117/192/51 118/191/51
f 115/227/52 116/228/52 106/186/52 105/189/52
f 109/205/53 111/208/53 136/229/53 135/230/53
f 117/204/54 104/203/54 126/210/54 125/209/54
f 132/211/55 127/231/55 128/232/55 129/233/55 130/234/55 131/212/55
f 123/226/56 124/194/56 130/235/56 129/236/56
f 121/202/57 122/184/57 128/237/57 127/238/57
f 126/221/58 121/220/58 127/239/58 132/240/58
f 124/194/59 125/193/59 131/241/59 130/235/59
f 122/242/4 123/226/4 129/236/4 128/243/4
f 137/244/60 138/245/60 144/246/60 143/247/60
f 111/208/61 113/248/61 137/249/61 136/229/61
f 115/250/62 105/251/62 133/252/62 138/245/62
f 113/253/63 115/250/63 138/245/63 137/244/63
f 105/189/64 107/190/64 134/254/64 133/255/64
f 107/198/65 109/201/65 135/256/65 134/257/65
f 142/258/66 143/259/66 149/260/66 148/261/66
f 135/230/67 136/229/67 142/258/67 141/262/67
f 133/255/68 134/254/68 140/263/68 139/264/68
f 138/245/69 133/252/69 139/265/69 144/246/69
f 136/229/70 137/249/70 143/259/70 142/258/70
f 134/257/71 135/256/71 141/266/71 140/267/71
f 145/268/72 146/269/72 147/270/72 148/271/72 149/272/72 150/273/72
f 140/267/73 141/266/73 147/270/73 146/269/73
f 143/274/74 144/275/74 150/273/74 149/272/74
f 141/262/75 142/258/75 148/261/75 147/276/75
f 139/277/76 140/278/76 146/279/76 145/280/76
f 144/246/77 139/265/77 145/281/77 150/282/77
usemtl 
f 168/283/37 167/284/37 171/285/37 170/286/37
f 156/287/38 154/288/38 151/288/38 152/287/38
f 153/289/39 154/288/39 156/287/39 155/290/39
f 166/291/40 165/292/40 173/293/40 172/294/40
f 154/295/41 164/296/41 168/283/41 151/297/41
f 155/290/1 156/287/1 158/298/1 157/299/1
f 151/297/42 168/283/42 170/286/42 169/300/42
f 158/301/43 156/302/43 152/303/43 165/292/43
f 157/299/44 158/298/44 160/304/44 159/305/44
f 173/298/11 174/287/11 180/287/11 179/298/11
f 164/296/45 162/306/45 167/284/45 168/283/45
f 159/305/46 160/304/46 162/223/46 161/222/46
f 162/307/47 160/308/47 166/291/47 167/309/47
f 152/287/48 151/288/48 169/288/48 174/287/48
f 161/222/49 162/223/49 164/224/49 163/225/49
f 167/309/50 166/291/50 172/294/50 171/310/50
f 160/308/51 158/301/51 165/292/51 166/291/51
f 163/225/52 164/224/52 154/311/52 153/312/52
f 157/313/53 159/314/53 184/315/53 183/316/53
f 165/292/54 152/303/54 174/317/54 173/293/54
f 180/318/55 175/319/55 176/320/55 177/321/55 178/322/55 179/323/55
f 171/285/56 172/324/56 178/325/56 177/326/56
f 169/300/57 170/286/57 176/327/57 175/328/57
f 174/287/58 169/288/58 175/288/58 180/287/58
f 172/304/59 173/298/59 179/298/59 178/304/59
f 170/286/4 171/285/4 177/326/4 176/327/4
f 185/329/60 186/330/60 192/331/60 191/332/60
f 159/314/61 161/333/61 185/334/61 184/315/61
f 163/335/62 153/336/62 181/337/62 186/330/62
f 161/338/63 163/335/63 186/330/63 185/329/63
f 153/289/64 155/290/64 182/290/64 181/289/64
f 155/339/65 157/313/65 183/316/65 182/340/65
f 190/341/66 191/342/66 197/343/66 196/344/66
f 183/316/67 184/315/67 190/341/67 189/345/67
f 181/289/68 182/290/68 188/290/68 187/289/68
f 186/330/69 181/337/69 187/346/69 192/331/69
f 184/315/70 185/334/70 191/342/70 190/341/70
f 182/340/71 183/316/71 189/345/71 188/347/71
f 193/348/72 194/349/72 195/350/72 196/351/72 197/352/72 198/353/72
f 188/347/73 189/345/73 195/354/73 194/355/73
f 191/332/74 192/331/74 198/356/74 197/357/74
f 189/345/75 190/341/75 196/344/75 195/354/75
f 187/358/76 188/359/76 194/360/76 193/361/76
f 192/331/77 187/346/77 193/362/77 198/356/77
