# Blender 4.3.2
# www.blender.org
mtllib sheybboard.mtl
o Cube
v -0.186045 -11.514883 0.447806
v -3.185864 5.561968 1.000000
v -0.173119 -11.514883 -0.430684
v -3.185864 5.561968 -1.000000
v 0.186045 -11.514883 0.447806
v 3.363594 5.561968 1.000000
v 0.173119 -11.514883 -0.430684
v 3.363594 5.561968 -1.000000
v -0.519907 -11.514883 0.000000
v -3.185864 5.561968 0.000000
v 0.519907 -11.514883 0.000000
v 3.363594 5.561968 0.000000
v -3.185864 0.000000 1.000000
v -3.185864 0.000000 -1.000000
v 3.363594 0.000000 1.000000
v 3.363594 0.000000 -1.000000
v 3.363594 0.000000 0.000000
v -3.185864 0.000000 0.000000
v -0.173119 -0.085366 -0.430684
v 0.173119 -0.085366 -0.430684
v 0.519907 -0.085366 0.000000
v 0.186045 -0.085366 0.447806
v -0.519907 -0.085366 0.000000
v -0.186045 -0.085366 0.447806
v 0.000000 -11.514883 -0.430684
v 0.000000 5.561968 -1.000000
v 0.000000 -11.514883 0.447806
v 0.000000 5.561968 1.000000
v 0.000000 5.561968 0.000000
v -0.519907 -11.935125 0.000000
v 0.000000 0.000000 1.000000
v 0.000000 0.000000 -1.000000
v 0.000000 -0.085366 -0.430684
v 0.000000 -0.085366 0.447806
v -0.519907 -11.649514 0.000000
v -0.186045 -11.649514 0.447806
v 0.000000 -11.649514 -0.430684
v -0.173119 -11.649514 -0.430684
v 0.173119 -11.649514 -0.430684
v 0.519907 -11.649514 0.000000
v 0.186045 -11.649514 0.447806
v 0.000000 -11.649514 0.447806
v -0.186045 -11.935125 0.447806
v 0.000000 -11.935125 -0.430684
v -0.173119 -11.935125 -0.430684
v 0.173119 -11.935125 -0.430684
v 0.519907 -11.935125 0.000000
v 0.186045 -11.935125 0.447806
v 0.000000 -11.935125 0.000000
v 0.000000 -11.935125 0.447806
vn -1.0000 -0.0000 -0.0000
vn 1.0000 -0.0000 -0.0000
vn -0.0000 -0.9883 0.1528
vn -0.0000 -0.0000 1.0000
vn -0.0000 1.0000 -0.0000
vn 0.0277 -0.9996 -0.0067
vn -0.0295 -0.9995 0.0068
vn -0.0000 -0.0000 -1.0000
vn 0.7789 -0.0000 -0.6272
vn -0.0293 -0.9995 -0.0071
vn -0.7789 -0.0000 -0.6272
vn -0.8017 -0.0000 0.5977
vn -0.0000 -0.9889 -0.1483
vn 0.8017 -0.0000 0.5977
vn 0.0278 -0.9996 0.0064
vn -0.0000 -1.0000 -0.0000
vt 0.215364 0.450034
vt 0.215364 0.456953
vt 0.214121 0.456953
vt 0.214121 0.450034
vt 0.223534 0.441428
vt 0.224453 0.441428
vt 0.224453 0.446541
vt 0.223534 0.446541
vt 0.644826 0.227968
vt 0.650277 0.227968
vt 0.743386 0.244148
vt 0.644826 0.244148
vt 0.565944 0.341471
vt 0.565944 0.994995
vt 0.191609 0.994995
vt 0.191609 0.341471
vt 0.225373 0.441428
vt 0.225373 0.446541
vt 0.889338 0.670433
vt 0.917187 0.676805
vt 0.913467 0.681963
vt 0.886563 0.676080
vt 0.892355 0.664295
vt 0.921216 0.671219
vt 0.961162 0.341471
vt 0.961162 0.994995
vt 0.660060 0.214846
vt 0.649898 0.202226
vt 0.743386 0.185544
vt 0.743386 0.214846
vt 0.216608 0.450034
vt 0.216608 0.456953
vt 0.639374 0.227968
vt 0.551473 0.244148
vt 0.551473 0.214846
vt 0.629591 0.214846
vt 0.100025 0.302568
vt 0.104053 0.302568
vt 0.184542 0.330677
vt 0.582057 0.330677
vt 0.582057 0.988000
vt 0.184542 0.988000
vt 0.072131 0.072723
vt 0.080503 0.072723
vt 0.080503 0.348677
vt 0.072131 0.348677
vt 0.551473 0.185544
vt 0.639753 0.202226
vt 0.097236 0.072723
vt 0.097236 0.348677
vt 0.088863 0.348677
vt 0.088863 0.072723
vt 0.100025 0.055110
vt 0.104053 0.055110
vt 0.108081 0.302568
vt 0.108081 0.055110
vt 0.084683 0.072723
vt 0.084683 0.348677
vt 0.115309 0.055110
vt 0.115309 0.302568
vt 0.644826 0.185544
vt 0.644826 0.202226
vt 0.092797 0.302568
vt 0.092797 0.055110
vt 0.856929 0.663017
vt 0.858624 0.656201
vt 0.958568 0.330677
vt 0.958568 0.988000
vt 0.855376 0.669260
vt 0.644826 0.214846
s 0
usemtl Material.001
f 18/1/1 10/2/1 4/3/1 14/4/1
f 15/5/2 17/6/2 12/7/2 6/8/2
f 34/9/3 22/10/3 15/11/3 31/12/3
f 31/13/4 28/14/4 2/15/4 13/16/4
f 17/6/2 16/17/2 8/18/2 12/7/2
f 29/19/5 10/20/5 2/21/5 28/22/5
f 26/23/5 4/24/5 10/20/5 29/19/5
f 31/13/4 15/25/4 6/26/4 28/14/4
f 21/27/6 20/28/6 16/29/6 17/30/6
f 13/31/1 2/32/1 10/2/1 18/1/1
f 24/33/7 13/34/7 18/35/7 23/36/7
f 5/37/4 27/38/4 42/38/4 41/37/4
f 34/9/3 31/12/3 13/34/3 24/33/3
f 16/39/8 32/40/8 26/41/8 8/42/8
f 11/43/9 7/44/9 20/45/9 21/46/9
f 23/36/10 18/35/10 14/47/10 19/48/10
f 9/49/11 23/50/11 19/51/11 3/52/11
f 27/38/4 5/37/4 22/53/4 34/54/4
f 27/38/4 1/55/4 36/55/4 42/38/4
f 27/38/4 34/54/4 24/56/4 1/55/4
f 7/44/8 25/57/8 33/58/8 20/45/8
f 1/55/12 24/56/12 23/59/12 9/60/12
f 19/48/13 14/47/13 32/61/13 33/62/13
f 5/37/14 11/63/14 21/64/14 22/53/14
f 22/10/15 21/27/15 17/30/15 15/11/15
f 26/23/5 29/19/5 12/65/5 8/66/5
f 7/44/9 11/43/9 40/43/9 39/44/9
f 20/28/13 33/62/13 32/61/13 16/29/13
f 14/67/8 4/68/8 26/41/8 32/40/8
f 29/19/5 28/22/5 6/69/5 12/65/5
f 25/57/8 7/44/8 39/44/8 37/57/8
f 3/52/8 19/51/8 33/58/8 25/57/8
f 42/38/4 36/55/4 43/55/4 50/38/4
f 41/37/4 42/38/4 50/38/4 48/37/4
f 38/52/8 37/57/8 44/57/8 45/52/8
f 40/63/14 41/37/14 48/37/14 47/63/14
f 3/52/8 25/57/8 37/57/8 38/52/8
f 9/49/11 3/52/11 38/52/11 35/49/11
f 1/55/12 9/60/12 35/60/12 36/55/12
f 11/63/14 5/37/14 41/37/14 40/63/14
f 47/27/16 48/10/16 50/9/16 49/70/16
f 46/28/16 47/27/16 49/70/16 44/62/16
f 30/36/16 49/70/16 50/9/16 43/33/16
f 45/48/16 44/62/16 49/70/16 30/36/16
f 35/49/11 38/52/11 45/52/11 30/49/11
f 39/44/9 40/43/9 47/43/9 46/44/9
f 37/57/8 39/44/8 46/44/8 44/57/8
f 36/55/12 35/60/12 30/60/12 43/55/12
