# Blender 4.3.2
# www.blender.org
mtllib street_lamp.mtl
o Cylinder
v 0.000000 -5.362212 -0.200000
v 0.000000 -4.962212 -0.200000
v 0.141421 -5.362212 -0.141421
v 0.141421 -4.962212 -0.141421
v 0.200000 -5.362212 0.000000
v 0.200000 -4.962212 0.000000
v 0.141421 -5.362212 0.141421
v 0.141421 -4.962212 0.141421
v 0.000000 -5.362212 0.200000
v 0.000000 -4.962212 0.200000
v -0.141421 -5.362212 0.141421
v -0.141421 -4.962212 0.141421
v -0.200000 -5.362212 0.000000
v -0.200000 -4.962212 0.000000
v -0.141421 -5.362212 -0.141421
v -0.141421 -4.962212 -0.141421
v 0.141421 -3.670867 -0.141421
v 0.000000 -3.670867 -0.200000
v 0.200000 -3.670867 0.000000
v 0.141421 -3.670867 0.141421
v 0.000000 -3.670867 0.200000
v -0.141421 -3.670867 0.141421
v -0.200000 -3.670867 0.000000
v -0.141421 -3.670867 -0.141421
v 0.141421 -0.813605 -0.141421
v 0.000000 -0.813605 -0.200000
v 0.200000 -0.813605 0.000000
v 0.141421 -0.813605 0.141421
v 0.000000 -0.813605 0.200000
v -0.141421 -0.813605 0.141421
v -0.200000 -0.813605 0.000000
v -0.141421 -0.813605 -0.141421
v 0.141421 0.896062 -0.141421
v 0.000000 0.896062 -0.200000
v 0.200000 0.896062 0.000000
v 0.141421 0.896062 0.141421
v 0.000000 0.896062 0.200000
v -0.141421 0.896062 0.141421
v -0.200000 0.896062 0.000000
v -0.141421 0.896062 -0.141421
v 0.141421 2.167305 -0.141421
v 0.000000 2.167305 -0.200000
v 0.200000 2.167305 0.000000
v 0.141421 2.167305 0.141421
v 0.000000 2.167305 0.200000
v -0.141421 2.167305 0.141421
v -0.200000 2.167305 0.000000
v -0.141421 2.167305 -0.141421
v 0.141421 3.289776 -0.800347
v 0.000000 3.249651 -0.843025
v 0.200000 3.386647 -0.697312
v 0.141421 3.483517 -0.594278
v 0.000000 3.523643 -0.551600
v -0.141421 3.483517 -0.594278
v -0.200000 3.386647 -0.697312
v -0.141421 3.289776 -0.800347
v 0.141421 3.651063 -1.540389
v -0.000001 3.592485 -1.540691
v 0.199999 3.792483 -1.539662
v 0.141421 3.933902 -1.538934
v -0.000001 3.992481 -1.538633
v -0.141422 3.933902 -1.538934
v -0.200001 3.792483 -1.539662
v -0.141422 3.651063 -1.540389
v 0.187985 3.793846 -1.638157
v -0.000001 3.776360 -1.638557
v 0.265851 3.790871 -1.637189
v 0.180367 3.973522 -1.669737
v -0.000001 4.048233 -1.669353
v -0.180368 3.973522 -1.669737
v -0.265852 3.790871 -1.637189
v -0.187986 3.793846 -1.638157
v 0.187985 3.807395 -2.980185
v -0.000001 3.789909 -2.980585
v 0.265851 3.804420 -2.979218
v 0.187985 3.992403 -2.978251
v -0.000001 4.070268 -2.977850
v -0.187986 3.992403 -2.978251
v -0.265852 3.804420 -2.979218
v -0.187986 3.807395 -2.980185
vn 0.3827 -0.0000 -0.9239
vn 0.9239 -0.0000 -0.3827
vn 0.9239 -0.0000 0.3827
vn 0.3827 -0.0000 0.9239
vn -0.3827 -0.0000 0.9239
vn -0.9239 -0.0000 0.3827
vn -0.3827 -0.0000 -0.9239
vn -0.9239 -0.0000 -0.3827
vn -0.0000 -1.0000 -0.0000
vn -0.9118 -0.2058 -0.3554
vn 0.9115 -0.3700 -0.1794
vn -0.3567 0.4543 0.8163
vn 0.9120 0.2018 0.3571
vn 0.3555 -0.4752 -0.8048
vn -0.3555 -0.4752 -0.8048
vn -0.9120 0.2018 0.3571
vn 0.3567 0.4543 0.8163
vn 0.9118 -0.2058 -0.3554
vn -0.8055 0.4009 0.4364
vn -0.9115 -0.3700 -0.1794
vn -0.3555 0.8440 0.4016
vn 0.9116 0.3708 0.1777
vn 0.3554 -0.8394 -0.4111
vn -0.3554 -0.8394 -0.4111
vn -0.9116 0.3708 0.1777
vn 0.3555 0.8440 0.4016
vn 0.0926 -0.9956 -0.0101
vn 0.3567 0.8593 0.3665
vn 0.7095 -0.6981 -0.0962
vn -0.7095 -0.6981 -0.0962
vn -0.3567 0.8593 0.3665
vn 0.8055 0.4009 0.4364
vn 0.1225 -0.5227 -0.8437
vn -0.1225 -0.5227 -0.8437
vn -0.0000 0.0101 -0.9999
vn -0.0926 -0.9956 -0.0101
vn -0.9148 0.4038 0.0076
vn 0.3827 0.9238 0.0156
vn -0.0380 -0.9992 -0.0101
vn 0.0380 -0.9992 -0.0101
vn -0.3827 0.9238 0.0156
vn 0.9148 0.4038 0.0076
vt 0.121752 0.995400
vt 0.121752 0.954873
vt 0.136080 0.954873
vt 0.136080 0.995400
vt 0.142016 0.954873
vt 0.142016 0.995400
vt 0.089598 0.988491
vt 0.089598 0.948985
vt 0.095383 0.948985
vt 0.095383 0.988491
vt 0.109351 0.948985
vt 0.109351 0.988491
vt 0.123318 0.948985
vt 0.123318 0.988491
vt 0.129103 0.948985
vt 0.129103 0.988491
vt 0.107424 0.954873
vt 0.107424 0.824038
vt 0.121752 0.824038
vt 0.101489 0.995400
vt 0.101489 0.954873
vt 0.107424 0.995400
vt 0.750000 0.490000
vt 0.919706 0.419706
vt 0.990000 0.250000
vt 0.919706 0.080294
vt 0.750000 0.010000
vt 0.580294 0.080294
vt 0.510000 0.250000
vt 0.580294 0.419706
vt 0.101489 0.824038
vt 0.101489 0.534549
vt 0.107424 0.534549
vt 0.136080 0.824038
vt 0.089598 0.821445
vt 0.095383 0.821445
vt 0.123318 0.821445
vt 0.129103 0.821445
vt 0.109351 0.821445
vt 0.142016 0.824038
vt 0.129103 0.539249
vt 0.123318 0.539249
vt 0.123318 0.370394
vt 0.129103 0.370394
vt 0.109351 0.539249
vt 0.089598 0.539249
vt 0.095383 0.539249
vt 0.121752 0.534549
vt 0.136080 0.534549
vt 0.142016 0.534549
vt 0.136080 0.361331
vt 0.121752 0.361331
vt 0.121752 0.232533
vt 0.136080 0.232533
vt 0.095383 0.370394
vt 0.109351 0.370394
vt 0.142016 0.361331
vt 0.101489 0.361331
vt 0.107424 0.361331
vt 0.089598 0.370394
vt 0.107424 0.232533
vt 0.101489 0.232533
vt 0.101489 0.108992
vt 0.107424 0.118807
vt 0.123318 0.244840
vt 0.129103 0.244840
vt 0.095383 0.244840
vt 0.109351 0.244840
vt 0.142016 0.232533
vt 0.089598 0.244840
vt 0.081721 0.255855
vt 0.091629 0.273283
vt 0.091629 0.398464
vt 0.081721 0.398341
vt 0.109351 0.110881
vt 0.123318 0.114844
vt 0.089598 0.124411
vt 0.095383 0.114844
vt 0.121752 0.122872
vt 0.136080 0.118807
vt 0.129103 0.124411
vt 0.142016 0.108992
vt 0.659740 0.231795
vt 0.660948 0.226325
vt 0.673314 0.232540
vt 0.668077 0.239846
vt 0.139473 0.273283
vt 0.149382 0.255855
vt 0.149382 0.398341
vt 0.139473 0.398464
vt 0.572444 0.210021
vt 0.570540 0.196220
vt 0.663513 0.212471
vt 0.586463 0.188880
vt 0.595040 0.186247
vt 0.656197 0.196134
vt 0.655634 0.200323
vt 0.115551 0.280503
vt 0.115551 0.398515
vt 0.589966 0.214689
vt 0.582841 0.209175
vt 0.651798 0.221878
vt 0.650856 0.226140
vt 0.577092 0.183972
vt 0.665872 0.198659
vt 0.629083 0.648066
vt 0.636417 0.648082
vt 0.636417 0.700444
vt 0.629083 0.700428
vt 0.679630 0.197041
vt 0.676716 0.214783
vt 0.083753 0.415002
vt 0.070582 0.414838
vt 0.160521 0.414838
vt 0.147350 0.415002
vt 0.666594 0.193283
vt 0.677194 0.188605
vt 0.115551 0.415070
vt 0.419706 0.419706
vt 0.250000 0.490000
vt 0.080294 0.419706
vt 0.010000 0.250000
vt 0.080294 0.080294
vt 0.250000 0.010000
vt 0.419706 0.080294
vt 0.490000 0.250000
vt 0.643752 0.648066
vt 0.643752 0.700428
vt 0.805531 0.257163
vt 0.800829 0.263914
vt 0.812207 0.219492
vt 0.810329 0.238534
vt 0.626044 0.648028
vt 0.626044 0.700390
vt 0.646790 0.648028
vt 0.646790 0.700390
vt 0.810071 0.211771
s 0
usemtl Material
f 1/1/1 2/2/1 4/3/1 3/4/1
f 3/4/2 4/3/2 6/5/2 5/6/2
f 5/7/3 6/8/3 8/9/3 7/10/3
f 7/10/4 8/9/4 10/11/4 9/12/4
f 9/12/5 10/11/5 12/13/5 11/14/5
f 11/14/6 12/13/6 14/15/6 13/16/6
f 2/2/7 16/17/7 24/18/7 18/19/7
f 13/20/8 14/21/8 16/17/8 15/22/8
f 15/22/7 16/17/7 2/2/7 1/1/7
f 1/23/9 3/24/9 5/25/9 7/26/9 9/27/9 11/28/9 13/29/9 15/30/9
f 24/18/8 23/31/8 31/32/8 32/33/8
f 4/3/1 2/2/1 18/19/1 17/34/1
f 8/9/3 6/8/3 19/35/3 20/36/3
f 14/15/6 12/13/6 22/37/6 23/38/6
f 10/11/4 8/9/4 20/36/4 21/39/4
f 16/17/8 14/21/8 23/31/8 24/18/8
f 6/5/2 4/3/2 17/34/2 19/40/2
f 12/13/5 10/11/5 21/39/5 22/37/5
f 31/41/6 30/42/6 38/43/6 39/44/6
f 22/37/5 21/39/5 29/45/5 30/42/5
f 20/36/3 19/35/3 27/46/3 28/47/3
f 17/34/1 18/19/1 26/48/1 25/49/1
f 18/19/7 24/18/7 32/33/7 26/48/7
f 23/38/6 22/37/6 30/42/6 31/41/6
f 21/39/4 20/36/4 28/47/4 29/45/4
f 19/40/2 17/34/2 25/49/2 27/50/2
f 33/51/1 34/52/1 42/53/1 41/54/1
f 29/45/4 28/47/4 36/55/4 37/56/4
f 27/50/2 25/49/2 33/51/2 35/57/2
f 32/33/8 31/32/8 39/58/8 40/59/8
f 30/42/5 29/45/5 37/56/5 38/43/5
f 28/47/3 27/46/3 35/60/3 36/55/3
f 25/49/1 26/48/1 34/52/1 33/51/1
f 26/48/7 32/33/7 40/59/7 34/52/7
f 48/61/10 47/62/10 55/63/10 56/64/10
f 34/52/7 40/59/7 48/61/7 42/53/7
f 39/44/6 38/43/6 46/65/6 47/66/6
f 37/56/4 36/55/4 44/67/4 45/68/4
f 35/57/2 33/51/2 41/54/2 43/69/2
f 40/59/8 39/58/8 47/62/8 48/61/8
f 38/43/5 37/56/5 45/68/5 46/65/5
f 36/55/3 35/60/3 43/70/3 44/67/3
f 51/71/11 49/72/11 57/73/11 59/74/11
f 46/65/12 45/68/12 53/75/12 54/76/12
f 44/67/13 43/70/13 51/77/13 52/78/13
f 41/54/14 42/53/14 50/79/14 49/80/14
f 42/53/15 48/61/15 56/64/15 50/79/15
f 47/66/16 46/65/16 54/76/16 55/81/16
f 45/68/17 44/67/17 52/78/17 53/75/17
f 43/69/18 41/54/18 49/80/18 51/82/18
f 63/83/19 62/84/19 70/85/19 71/86/19
f 56/87/20 55/88/20 63/89/20 64/90/20
f 54/91/21 53/92/21 61/93/21 62/84/21
f 52/94/22 51/95/22 59/96/22 60/97/22
f 49/72/23 50/98/23 58/99/23 57/73/23
f 50/98/24 56/87/24 64/90/24 58/99/24
f 55/100/25 54/101/25 62/102/25 63/103/25
f 53/92/26 52/104/26 60/105/26 61/93/26
f 65/106/27 66/107/27 74/108/27 73/109/27
f 61/93/28 60/105/28 68/110/28 69/111/28
f 59/74/29 57/73/29 65/112/29 67/113/29
f 64/90/30 63/89/30 71/114/30 72/115/30
f 62/84/31 61/93/31 69/111/31 70/85/31
f 60/105/32 59/116/32 67/117/32 68/110/32
f 57/73/33 58/99/33 66/118/33 65/112/33
f 58/99/34 64/90/34 72/115/34 66/118/34
f 73/119/35 74/120/35 80/121/35 79/122/35 78/123/35 77/124/35 76/125/35 75/126/35
f 66/107/36 72/127/36 80/128/36 74/108/36
f 71/86/37 70/85/37 78/129/37 79/130/37
f 69/111/38 68/110/38 76/131/38 77/132/38
f 67/133/39 65/106/39 73/109/39 75/134/39
f 72/127/40 71/135/40 79/136/40 80/128/40
f 70/85/41 69/111/41 77/132/41 78/129/41
f 68/110/42 67/117/42 75/137/42 76/131/42
