# Blender 4.3.2
# www.blender.org
mtllib tree_spr.mtl
o Cylinder
v 0.000000 -0.200000 -0.200000
v 0.000000 0.200000 -0.200000
v 0.190211 -0.200000 -0.061803
v 0.190211 0.200000 -0.061803
v 0.117557 -0.200000 0.161803
v 0.117557 0.200000 0.161803
v -0.117557 -0.200000 0.161803
v -0.117557 0.200000 0.161803
v -0.190211 -0.200000 -0.061803
v -0.190211 0.200000 -0.061803
v 0.149118 5.526769 -0.067460
v 0.000000 5.526769 -0.200000
v 0.158650 5.526769 0.167460
v -0.117557 5.526769 0.161803
v -0.190211 5.526769 -0.061803
v 0.542934 6.436345 -0.373187
v 0.472226 6.436345 -0.424559
v 0.515926 6.436345 -0.290064
v 0.428526 6.436345 -0.290064
v 0.401518 6.436345 -0.373187
v -0.117557 2.846311 0.161803
v -0.190211 2.846311 -0.061803
v 0.190211 2.846311 -0.061803
v 0.117557 2.846311 0.161803
v 0.000000 2.846311 -0.200000
v -0.112395 5.275507 0.108341
v 0.149118 5.219934 -0.067460
v -0.195373 5.184334 -0.130209
v 0.158650 5.219934 0.167460
v 0.000000 5.219934 -0.200000
v -0.195373 4.865470 -0.008341
v 0.117557 4.921044 0.161803
v 0.000000 4.921044 -0.200000
v -0.112395 4.956644 0.230209
v 0.190212 4.921044 -0.061803
v -0.358978 6.212293 1.154381
v -0.272786 6.212293 1.154381
v -0.358978 6.099807 1.154381
v -0.272786 6.099807 1.154381
v 1.925227 5.662342 -0.747932
v 1.895948 5.875304 -0.751963
v 1.902740 5.875304 -0.584579
v 1.873460 5.662342 -0.588610
v -1.497025 5.896883 -1.864030
v -1.448709 5.896883 -1.899135
v -1.497025 5.820961 -1.864030
v -1.448709 5.820961 -1.899135
v -1.520150 5.209764 0.498641
v -1.520150 5.265944 0.477170
v -1.534769 5.249881 0.435140
v -1.534769 5.193701 0.456612
v -1.845783 5.247538 0.597474
v -1.845783 5.303718 0.576002
v -1.860403 5.287654 0.533973
v -1.860403 5.231475 0.555444
v -0.194789 4.637113 -0.014387
v 0.117557 4.686402 0.161803
v 0.000000 4.686402 -0.200000
v -0.112979 4.717975 0.222473
v 0.190212 4.686402 -0.061803
v 0.466617 4.730535 -1.482207
v 0.466617 4.876911 -1.482207
v 0.347958 4.876911 -1.568417
v 0.347958 4.730535 -1.568417
v 1.265716 5.252744 -2.144162
v 1.265716 5.330480 -2.144162
v 1.202700 5.330480 -2.189946
v 1.202700 5.252744 -2.189946
v -0.358978 6.212293 2.022795
v -0.272786 6.212293 2.022795
v -0.358978 6.099807 2.022795
v -0.272786 6.099807 2.022795
v -0.681960 6.182771 2.644042
v -0.641010 6.182771 2.644042
v -0.681960 6.129329 2.644042
v -0.641010 6.129329 2.644042
v -0.193247 4.033859 -0.030360
v 0.117557 4.066545 0.161803
v 0.000000 4.066545 -0.200000
v -0.114521 4.087481 0.202036
v 0.190212 4.066545 -0.061803
v -0.192651 3.800580 -0.036537
v 0.117557 3.826844 0.161803
v 0.000000 3.826844 -0.200000
v -0.115117 3.843669 0.194133
v 0.190211 3.826844 -0.061803
v -0.095106 -0.200000 -0.130902
v -0.095106 0.200000 -0.130902
v -0.095105 5.526769 -0.130902
v 0.436872 6.436345 -0.398873
v -0.095106 2.846311 -0.130902
v -0.097686 5.202134 -0.165105
v -0.097686 4.893257 -0.104170
v -1.472867 5.896883 -1.881582
v -1.472867 5.820961 -1.881582
v -0.097394 4.661757 -0.107194
v -0.096623 4.050201 -0.115180
v -0.096325 3.813712 -0.118268
v -1.075399 4.337434 -0.690212
v -1.075154 4.241666 -0.692748
v -1.035732 4.344144 -0.725033
v -1.035610 4.247058 -0.726301
vn 0.5878 -0.0000 -0.8090
vn 0.9511 -0.0000 0.3090
vn -0.0000 -0.0000 1.0000
vn -0.9414 -0.0678 0.3304
vn -0.9511 -0.0000 0.3090
vn -0.5878 -0.0000 -0.8090
vn -0.0000 -1.0000 -0.0000
vn -0.0139 0.4526 0.8916
vn 0.9992 -0.0000 -0.0405
vn -0.4800 0.1388 -0.8662
vn 0.6643 -0.0000 -0.7474
vn 0.0089 0.8234 -0.5673
vn -0.0000 1.0000 -0.0000
vn 0.5672 -0.4676 -0.6779
vn -0.7702 0.5867 0.2502
vn 0.9305 -0.3627 0.0511
vn -0.5845 0.1048 -0.8046
vn 0.0512 0.1813 0.9821
vn 0.6233 0.0355 -0.7812
vn 0.7610 -0.0000 -0.6488
vn 0.4358 -0.8889 0.1416
vn -0.3807 -0.3301 -0.8637
vn -0.9437 -0.0098 0.3306
vn -0.6969 0.0128 -0.7171
vn 0.9816 -0.0000 0.1910
vn 0.2677 -0.0161 0.9634
vn -0.2182 -0.7825 0.5832
vn 0.9163 -0.0000 0.4006
vn -0.9683 0.0228 -0.2487
vn 0.9907 -0.0000 0.1364
vn -0.3429 -0.0649 -0.9371
vn -0.3464 0.9380 0.0141
vn 0.4184 -0.0747 0.9052
vn -0.7484 0.1956 0.6337
vn -0.1384 -0.9173 -0.3735
vn 0.0184 0.9330 0.3594
vn -0.0000 -0.9341 0.3570
vn -0.0922 -0.9190 0.3833
vn 0.2355 0.3470 0.9078
vn -0.0922 0.9404 -0.3274
vn -0.9511 0.1103 0.2887
vn -0.0000 0.9341 -0.3570
vn -0.3090 -0.3395 -0.8884
vn 0.3090 0.3395 0.8884
vn 0.2113 -0.0162 0.9773
vn -0.6767 0.0132 -0.7361
vn -0.9453 -0.0096 0.3261
vn -0.5881 -0.0000 -0.8088
vn 0.0198 -0.9994 -0.0272
vn 0.0198 0.9994 -0.0272
vn -0.9692 -0.0000 -0.2464
vn 0.6379 -0.0000 0.7701
vn 0.2710 -0.8874 -0.3730
vn -0.2417 0.9115 0.3327
vn -0.0000 -0.9989 0.0475
vn -1.0000 -0.0000 -0.0000
vn 1.0000 -0.0000 -0.0000
vn -0.8873 -0.0000 -0.4613
vn 0.8602 -0.0000 0.5099
vn -0.0000 0.9989 0.0475
vn -0.9469 -0.0095 0.3215
vn 0.5472 0.0116 -0.8370
vn 0.1529 -0.0163 0.9881
vn 0.0684 -0.0164 0.9975
vn -0.6194 0.0143 -0.7849
vn -0.9492 -0.0093 0.3147
vn -0.6191 0.0047 -0.7853
vn -0.6538 0.0045 -0.7566
vn -0.6758 0.0044 -0.7371
vn 0.0206 0.9312 0.3639
vn -0.1366 -0.9182 -0.3718
vn -0.6957 0.0042 -0.7183
vn -0.4777 0.0495 -0.8771
vn -0.6546 0.0137 -0.7559
vn -0.1850 -0.9126 -0.3646
vn -0.6038 -0.0226 0.7968
vn 0.1024 0.9486 0.2995
vt 1.000000 0.500000
vt 1.000000 1.000000
vt 0.800000 1.000000
vt 0.800000 0.500000
vt 0.600000 1.000000
vt 0.600000 0.500000
vt 0.400000 1.000000
vt 0.400000 0.500000
vt 0.200000 1.000000
vt 0.400000 1.000000
vt 0.200000 1.000000
vt 0.200000 0.500000
vt 0.100000 0.500000
vt 0.100000 1.000000
vt 0.000000 1.000000
vt 0.000000 0.500000
vt 0.750000 0.490000
vt 0.978254 0.324164
vt 0.891068 0.055836
vt 0.608932 0.055836
vt 0.521746 0.324164
vt 0.635873 0.407082
vt 0.100000 1.000000
vt 0.100000 1.000000
vt 0.478254 0.324164
vt 0.250000 0.490000
vt 0.135873 0.407082
vt 0.021746 0.324164
vt 0.108932 0.055836
vt 0.391068 0.055836
vt 0.800000 1.000000
vt 0.100000 1.000000
vt 0.400000 1.000000
vt 0.600000 1.000000
vt 0.100000 1.000000
vt 0.100000 1.000000
vt 0.600000 1.000000
vt 0.600000 1.000000
vt 0.100000 1.000000
s 0
f 1/1/1 2/2/1 4/3/1 3/4/1
f 3/4/2 4/3/2 6/5/2 5/6/2
f 5/6/3 6/5/3 8/7/3 7/8/3
f 28/9/4 26/10/4 14/7/4 15/11/4
f 7/8/5 8/7/5 10/11/5 9/12/5
f 87/13/6 88/14/6 2/15/6 1/16/6
f 1/17/7 3/18/7 5/19/7 7/20/7 9/21/7 87/22/7
f 14/7/8 13/5/8 18/5/8 19/7/8
f 29/5/9 27/3/9 11/3/9 13/5/9
f 92/23/10 28/9/10 15/11/10 89/24/10
f 27/3/11 30/2/11 12/2/11 11/3/11
f 13/5/12 14/7/12 36/7/12 37/5/12
f 16/25/13 17/26/13 90/27/13 20/28/13 19/29/13 18/30/13
f 11/3/14 12/2/14 17/2/14 16/3/14
f 15/11/15 14/7/15 19/7/15 20/11/15
f 13/5/16 11/3/16 16/3/16 18/5/16
f 89/24/17 15/11/17 20/11/17 90/14/17
f 8/7/3 6/5/3 24/5/3 21/7/3
f 4/3/1 2/2/1 25/2/1 23/31/1
f 88/14/6 10/11/6 22/9/6 91/32/6
f 6/5/2 4/3/2 23/31/2 24/5/2
f 10/11/5 8/7/5 21/7/5 22/9/5
f 34/33/18 32/34/18 29/5/18 26/10/18
f 35/31/19 33/2/19 30/2/19 27/3/19
f 30/2/20 33/2/20 47/2/20 45/2/20
f 32/34/21 35/31/21 40/31/21 43/34/21
f 28/9/22 31/11/22 51/11/22 50/9/22
f 56/9/23 59/33/23 34/33/23 31/11/23
f 57/5/2 60/31/2 35/31/2 32/34/2
f 96/35/24 56/9/24 31/11/24 93/35/24
f 35/31/25 60/31/25 61/31/25 62/31/25
f 59/33/26 57/5/26 32/34/26 34/33/26
f 38/10/7 39/5/7 72/5/7 71/10/7
f 26/10/27 29/5/27 39/5/27 38/10/27
f 29/5/28 13/5/28 37/5/28 39/5/28
f 14/7/29 26/10/29 38/10/29 36/7/29
f 43/34/30 40/31/30 41/3/30 42/5/30
f 35/31/31 27/3/31 41/3/31 40/31/31
f 27/3/32 29/5/32 42/5/32 41/3/32
f 29/5/33 32/34/33 43/34/33 42/5/33
f 95/36/6 46/11/6 44/9/6 94/23/6
f 31/11/34 28/9/34 44/9/34 46/11/34
f 93/35/35 31/11/35 46/11/35 95/36/35
f 92/23/36 30/15/36 45/15/36 94/23/36
f 51/11/37 48/33/37 52/33/37 55/11/37
f 31/11/38 34/33/38 48/33/38 51/11/38
f 34/33/39 26/10/39 49/10/39 48/33/39
f 26/10/40 28/9/40 50/9/40 49/10/40
f 55/11/41 52/33/41 53/10/41 54/9/41
f 49/10/42 50/9/42 54/9/42 53/10/42
f 50/9/43 51/11/43 55/11/43 54/9/43
f 48/33/44 49/10/44 53/10/44 52/33/44
f 80/33/45 78/37/45 57/5/45 59/33/45
f 81/31/1 79/2/1 58/2/1 60/31/1
f 97/24/46 77/9/46 56/9/46 96/35/46
f 78/37/2 81/31/2 60/31/2 57/5/2
f 77/9/47 80/33/47 59/33/47 56/9/47
f 64/15/48 63/15/48 67/15/48 68/15/48
f 60/31/49 58/2/49 64/2/49 61/31/49
f 33/2/50 35/31/50 62/31/50 63/2/50
f 58/15/51 33/15/51 63/15/51 64/15/51
f 65/31/1 68/2/1 67/2/1 66/31/1
f 62/31/52 61/31/52 65/31/52 66/31/52
f 61/31/53 64/2/53 68/2/53 65/31/53
f 63/2/54 62/31/54 66/31/54 67/2/54
f 71/10/55 72/5/55 76/5/55 75/10/55
f 36/7/56 38/10/56 71/10/56 69/7/56
f 39/5/57 37/5/57 70/5/57 72/5/57
f 37/5/13 36/7/13 69/7/13 70/5/13
f 75/10/3 76/5/3 74/5/3 73/7/3
f 69/7/58 71/10/58 75/10/58 73/7/58
f 72/5/59 70/5/59 74/5/59 76/5/59
f 70/5/60 69/7/60 73/7/60 74/5/60
f 82/9/61 85/33/61 80/33/61 77/9/61
f 83/38/2 86/31/2 81/31/2 78/37/2
f 97/24/62 98/39/62 102/39/62 101/24/62
f 86/31/1 84/2/1 79/2/1 81/31/1
f 85/33/63 83/38/63 78/37/63 80/33/63
f 21/7/64 24/5/64 83/38/64 85/33/64
f 23/31/1 25/2/1 84/2/1 86/31/1
f 91/32/65 22/9/65 82/9/65 98/39/65
f 24/5/2 23/31/2 86/31/2 83/38/2
f 22/9/66 21/7/66 85/33/66 82/9/66
f 25/15/67 91/32/67 98/39/67 84/15/67
f 84/15/68 98/39/68 97/24/68 79/15/68
f 79/15/69 97/24/69 96/35/69 58/15/69
f 28/9/70 92/23/70 94/23/70 44/9/70
f 33/15/71 93/35/71 95/36/71 47/15/71
f 47/15/6 95/36/6 94/23/6 45/15/6
f 58/15/72 96/35/72 93/35/72 33/15/72
f 2/15/6 88/14/6 91/32/6 25/15/6
f 12/15/17 89/24/17 90/14/17 17/15/17
f 30/15/73 92/23/73 89/24/73 12/15/73
f 9/12/6 10/11/6 88/14/6 87/13/6
f 102/39/74 100/9/74 99/9/74 101/24/74
f 98/39/75 82/9/75 100/9/75 102/39/75
f 82/9/76 77/9/76 99/9/76 100/9/76
f 77/9/77 97/24/77 101/24/77 99/9/77
