# Blender 4.3.2
# www.blender.org
mtllib wire_0.mtl
o Cube.001
v -0.068227 -0.100000 0.100000
v -0.068227 0.323551 0.100000
v -0.068227 -0.100000 0.030942
v -0.068227 0.323551 0.030942
v -0.003334 -0.100000 0.100000
v -0.003334 0.323551 0.100000
v -0.003334 -0.100000 0.030942
v -0.003334 0.323551 0.030942
v -0.035780 -0.100000 0.018270
v -0.035780 0.323551 0.018270
v -0.035780 -0.100000 0.114281
v -0.035780 0.323551 0.114281
v -0.081897 -0.100000 0.065471
v -0.081897 0.323551 0.065471
v 0.008521 -0.100000 0.065471
v 0.008521 0.323551 0.065471
v -0.081897 0.789351 0.065471
v -0.081897 0.627692 0.065471
v -0.068227 0.627692 0.030942
v -0.035780 0.627692 0.018270
v -0.003334 0.627692 0.030942
v 0.008521 0.627692 0.065471
v -0.003334 0.627692 0.100000
v -0.035780 0.627692 0.114281
v -0.068227 0.627692 0.100000
v -0.068227 0.789351 0.030942
v -0.035780 0.789351 0.018270
v -0.003334 0.789351 0.030942
v 0.008521 0.789351 0.065471
v -0.003334 0.789351 0.100000
v -0.035780 0.789351 0.114281
v -0.068227 0.789351 0.100000
vn -0.9298 -0.0000 -0.3681
vn 0.3638 -0.0000 -0.9315
vn 0.9458 -0.0000 0.3247
vn -0.4029 -0.0000 0.9153
vn -0.9298 -0.0000 0.3681
vn 0.4029 -0.0000 0.9153
vn -0.3638 -0.0000 -0.9315
vn 0.9458 -0.0000 -0.3247
vt 0.720841 0.457941
vt 0.721400 0.574618
vt 0.711087 0.574653
vt 0.710780 0.458233
vt 0.332442 0.244364
vt 0.332442 0.407892
vt 0.319914 0.407892
vt 0.319914 0.244364
vt 0.362222 0.445889
vt 0.362222 0.609418
vt 0.357645 0.609418
vt 0.357645 0.445889
vt 0.730367 0.460753
vt 0.731147 0.574956
vt 0.729725 0.574747
vt 0.728969 0.459013
vt 0.730292 0.661452
vt 0.721820 0.662060
vt 0.724434 0.462142
vt 0.725062 0.575123
vt 0.705541 0.574829
vt 0.705370 0.459695
vt 0.315337 0.407892
vt 0.315337 0.244364
vt 0.730601 0.708828
vt 0.722049 0.709850
vt 0.711318 0.661895
vt 0.711444 0.709572
vt 0.705669 0.661065
vt 0.705739 0.708178
vt 0.345118 0.609418
vt 0.731731 0.660466
vt 0.732050 0.707171
s 0
usemtl Material.001
f 13/1/1 14/2/1 4/3/1 3/4/1
f 9/5/2 10/6/2 8/7/2 7/8/2
f 15/9/3 16/10/3 6/11/3 5/12/3
f 11/13/4 12/14/4 2/15/4 1/16/4
f 6/11/3 16/10/3 22/10/3 23/11/3
f 14/2/5 2/15/5 25/17/5 18/18/5
f 5/19/6 6/20/6 12/14/6 11/13/6
f 3/4/7 4/3/7 10/21/7 9/22/7
f 16/23/8 8/7/8 21/7/8 22/23/8
f 8/7/2 10/6/2 20/6/2 21/7/2
f 7/8/8 8/7/8 16/23/8 15/24/8
f 1/16/5 2/15/5 14/2/5 13/1/5
f 18/18/5 25/17/5 32/25/5 17/26/5
f 19/27/1 18/18/1 17/26/1 26/28/1
f 23/11/3 22/10/3 29/10/3 30/11/3
f 20/29/7 19/27/7 26/28/7 27/30/7
f 12/31/6 6/11/6 23/11/6 24/31/6
f 10/21/7 4/3/7 19/27/7 20/29/7
f 4/3/1 14/2/1 18/18/1 19/27/1
f 2/15/4 12/14/4 24/32/4 25/17/4
f 24/31/6 23/11/6 30/11/6 31/31/6
f 25/17/4 24/32/4 31/33/4 32/25/4
f 21/7/2 20/6/2 27/6/2 28/7/2
f 22/23/8 21/7/8 28/7/8 29/23/8
